  0
SECTION
  2
HEADER
  9
$ACADVER
  1
AC1014
  9
$HANDSEED
  5
FFFF
  9
$MEASUREMENT
 70
     1
  0
ENDSEC
  0
SECTION
  2
TABLES
  0
TABLE
  2
VPORT
  5
8
330
0
100
AcDbSymbolTable
 70
     4
  0
VPORT
  5
2E
330
8
100
AcDbSymbolTableRecord
100
AcDbViewportTableRecord
  2
*ACTIVE
 70
     0
 10
0.0
 20
0.0
 11
1.0
 21
1.0
 12
210.0
 22
148.5
 13
0.0
 23
0.0
 14
10.0
 24
10.0
 15
10.0
 25
10.0
 16
0.0
 26
0.0
 36
1.0
 17
0.0
 27
0.0
 37
0.0
 40
341.0
 41
1.24
 42
50.0
 43
0.0
 44
0.0
 50
0.0
 51
0.0
 71
     0
 72
   100
 73
     1
 74
     3
 75
     0
 76
     0
 77
     0
 78
     0
  0
ENDTAB
  0
TABLE
  2
LTYPE
  5
5
330
0
100
AcDbSymbolTable
 70
     1
  0
LTYPE
  5
14
330
5
100
AcDbSymbolTableRecord
100
AcDbLinetypeTableRecord
  2
BYBLOCK
 70
     0
  3

 72
    65
 73
     0
 40
0.0
  0
LTYPE
  5
15
330
5
100
AcDbSymbolTableRecord
100
AcDbLinetypeTableRecord
  2
BYLAYER
 70
     0
  3

 72
    65
 73
     0
 40
0.0
  0
LTYPE
  5
16
330
5
100
AcDbSymbolTableRecord
100
AcDbLinetypeTableRecord
  2
CONTINUOUS
 70
     0
  3
Solid line
 72
    65
 73
     0
 40
0.0
  0
ENDTAB
  0
TABLE
  2
LAYER
  5
2
100
AcDbSymbolTable
 70
1
  0
LAYER
  5
50
100
AcDbSymbolTableRecord
100
AcDbLayerTableRecord
  2
0
 70
0
  6
CONTINUOUS
  0
ENDTAB
  0
TABLE
  2
STYLE
  5
3
330
0
100
AcDbSymbolTable
 70
     1
  0
STYLE
  5
11
330
3
100
AcDbSymbolTableRecord
100
AcDbTextStyleTableRecord
  2
STANDARD
 70
     0
 40
0.0
 41
1.0
 50
0.0
 71
     0
 42
2.5
  3
txt
  4

  0
ENDTAB
  0
TABLE
  2
VIEW
  5
6
330
0
100
AcDbSymbolTable
 70
     0
  0
ENDTAB
  0
TABLE
  2
UCS
  5
7
330
0
100
AcDbSymbolTable
 70
     0
  0
ENDTAB
  0
TABLE
  2
APPID
  5
9
330
0
100
AcDbSymbolTable
 70
     2
  0
APPID
  5
12
330
9
100
AcDbSymbolTableRecord
100
AcDbRegAppTableRecord
  2
ACAD
 70
     0
  0
ENDTAB
  0
TABLE
  2
DIMSTYLE
  5
A
330
0
100
AcDbSymbolTable
 70
     1
  0
DIMSTYLE
105
27
330
A
100
AcDbSymbolTableRecord
100
AcDbDimStyleTableRecord
  2
ISO-25
 70
     0
  3

  4

  5

  6

  7

 40
1.0
 41
2.5
 42
0.625
 43
3.75
 44
1.25
 45
0.0
 46
0.0
 47
0.0
 48
0.0
140
2.5
141
2.5
142
0.0
143
0.03937007874016
144
1.0
145
0.0
146
1.0
147
0.625
 71
     0
 72
     0
 73
     0
 74
     0
 75
     0
 76
     0
 77
     1
 78
     8
170
     0
171
     3
172
     1
173
     0
174
     0
175
     0
176
     0
177
     0
178
     0
270
     2
271
     2
272
     2
273
     2
274
     3
340
11
275
     0
280
     0
281
     0
282
     0
283
     0
284
     8
285
     0
286
     0
287
     3
288
     0
  0
ENDTAB
  0
TABLE
  2
BLOCK_RECORD
  5
1
330
0
100
AcDbSymbolTable
 70
     1
  0
BLOCK_RECORD
  5
1F
330
1
100
AcDbSymbolTableRecord
100
AcDbBlockTableRecord
  2
*MODEL_SPACE
  0
BLOCK_RECORD
  5
1B
330
1
100
AcDbSymbolTableRecord
100
AcDbBlockTableRecord
  2
*PAPER_SPACE
  0
ENDTAB
  0
ENDSEC
  0
SECTION
  2
BLOCKS
  0
BLOCK
  5
20
330
1F
100
AcDbEntity
  8
0
100
AcDbBlockBegin
  2
*MODEL_SPACE
 70
     0
 10
0.0
 20
0.0
 30
0.0
  3
*MODEL_SPACE
  1

  0
ENDBLK
  5
21
330
1F
100
AcDbEntity
  8
0
100
AcDbBlockEnd
  0
BLOCK
  5
1C
330
1B
100
AcDbEntity
 67
     1
  8
0
100
AcDbBlockBegin
  2
*PAPER_SPACE
  1

  0
ENDBLK
  5
1D
330
1B
100
AcDbEntity
 67
     1
  8
0
100
AcDbBlockEnd
  0
ENDSEC
  0
SECTION
  2
ENTITIES
  0
SPLINE
  5
100
100
AcDbEntity
  8
0
 62
1
100
AcDbSpline
 70
8
 71
3
 72
8
 73
4
 74
0
 40
0
 40
0
 40
0
 40
0
 40
1
 40
1
 40
1
 40
1
 10
10.728840
 20
208.039064
 30
0.0
 10
10.729108
 20
208.798059
 30
0.0
 10
10.324343
 20
209.499513
 30
0.0
 10
9.667079
 20
209.879088
 30
0.0
  0
SPLINE
  5
101
100
AcDbEntity
  8
0
 62
1
100
AcDbSpline
 70
8
 71
3
 72
8
 73
4
 74
0
 40
0
 40
0
 40
0
 40
0
 40
1
 40
1
 40
1
 40
1
 10
9.667079
 20
209.879088
 30
0.0
 10
9.009814
 20
210.258663
 30
0.0
 10
8.199954
 20
210.258663
 30
0.0
 10
7.542690
 20
209.879088
 30
0.0
  0
SPLINE
  5
102
100
AcDbEntity
  8
0
 62
1
100
AcDbSpline
 70
8
 71
3
 72
8
 73
4
 74
0
 40
0
 40
0
 40
0
 40
0
 40
1
 40
1
 40
1
 40
1
 10
7.542690
 20
209.879088
 30
0.0
 10
6.885426
 20
209.499513
 30
0.0
 10
6.480661
 20
208.798059
 30
0.0
 10
6.480929
 20
208.039064
 30
0.0
  0
SPLINE
  5
103
100
AcDbEntity
  8
0
 62
1
100
AcDbSpline
 70
8
 71
3
 72
8
 73
4
 74
0
 40
0
 40
0
 40
0
 40
0
 40
1
 40
1
 40
1
 40
1
 10
6.480929
 20
208.039064
 30
0.0
 10
6.480661
 20
207.280069
 30
0.0
 10
6.885426
 20
206.578614
 30
0.0
 10
7.542690
 20
206.199040
 30
0.0
  0
SPLINE
  5
104
100
AcDbEntity
  8
0
 62
1
100
AcDbSpline
 70
8
 71
3
 72
8
 73
4
 74
0
 40
0
 40
0
 40
0
 40
0
 40
1
 40
1
 40
1
 40
1
 10
7.542690
 20
206.199040
 30
0.0
 10
8.199954
 20
205.819465
 30
0.0
 10
9.009814
 20
205.819465
 30
0.0
 10
9.667079
 20
206.199040
 30
0.0
  0
SPLINE
  5
105
100
AcDbEntity
  8
0
 62
1
100
AcDbSpline
 70
8
 71
3
 72
8
 73
4
 74
0
 40
0
 40
0
 40
0
 40
0
 40
1
 40
1
 40
1
 40
1
 10
9.667079
 20
206.199040
 30
0.0
 10
10.324343
 20
206.578614
 30
0.0
 10
10.729108
 20
207.280069
 30
0.0
 10
10.728840
 20
208.039064
 30
0.0
  0
LINE
  5
106
100
AcDbEntity
  8
0
 62
1
100
AcDbLine
 10
10.728840
 20
208.039064
 30
0.0
 11
10.728840
 21
208.039064
 31
0.0
  0
SPLINE
  5
107
100
AcDbEntity
  8
0
 62
1
100
AcDbSpline
 70
8
 71
3
 72
8
 73
4
 74
0
 40
0
 40
0
 40
0
 40
0
 40
1
 40
1
 40
1
 40
1
 10
54.645441
 20
208.039064
 30
0.0
 10
54.645441
 20
208.797880
 30
0.0
 10
54.240617
 20
209.499055
 30
0.0
 10
53.583463
 20
209.878463
 30
0.0
  0
SPLINE
  5
108
100
AcDbEntity
  8
0
 62
1
100
AcDbSpline
 70
8
 71
3
 72
8
 73
4
 74
0
 40
0
 40
0
 40
0
 40
0
 40
1
 40
1
 40
1
 40
1
 10
53.583463
 20
209.878463
 30
0.0
 10
52.926309
 20
210.257872
 30
0.0
 10
52.116661
 20
210.257872
 30
0.0
 10
51.459507
 20
209.878463
 30
0.0
  0
SPLINE
  5
109
100
AcDbEntity
  8
0
 62
1
100
AcDbSpline
 70
8
 71
3
 72
8
 73
4
 74
0
 40
0
 40
0
 40
0
 40
0
 40
1
 40
1
 40
1
 40
1
 10
51.459507
 20
209.878463
 30
0.0
 10
50.802353
 20
209.499055
 30
0.0
 10
50.397529
 20
208.797880
 30
0.0
 10
50.397529
 20
208.039064
 30
0.0
  0
SPLINE
  5
10a
100
AcDbEntity
  8
0
 62
1
100
AcDbSpline
 70
8
 71
3
 72
8
 73
4
 74
0
 40
0
 40
0
 40
0
 40
0
 40
1
 40
1
 40
1
 40
1
 10
50.397529
 20
208.039064
 30
0.0
 10
50.397529
 20
207.280248
 30
0.0
 10
50.802353
 20
206.579072
 30
0.0
 10
51.459507
 20
206.199664
 30
0.0
  0
SPLINE
  5
10b
100
AcDbEntity
  8
0
 62
1
100
AcDbSpline
 70
8
 71
3
 72
8
 73
4
 74
0
 40
0
 40
0
 40
0
 40
0
 40
1
 40
1
 40
1
 40
1
 10
51.459507
 20
206.199664
 30
0.0
 10
52.116661
 20
205.820256
 30
0.0
 10
52.926309
 20
205.820256
 30
0.0
 10
53.583463
 20
206.199664
 30
0.0
  0
SPLINE
  5
10c
100
AcDbEntity
  8
0
 62
1
100
AcDbSpline
 70
8
 71
3
 72
8
 73
4
 74
0
 40
0
 40
0
 40
0
 40
0
 40
1
 40
1
 40
1
 40
1
 10
53.583463
 20
206.199664
 30
0.0
 10
54.240617
 20
206.579072
 30
0.0
 10
54.645441
 20
207.280248
 30
0.0
 10
54.645441
 20
208.039064
 30
0.0
  0
LINE
  5
10d
100
AcDbEntity
  8
0
 62
1
100
AcDbLine
 10
54.645441
 20
208.039064
 30
0.0
 11
54.645441
 21
208.039064
 31
0.0
  0
SPLINE
  5
10e
100
AcDbEntity
  8
0
 62
1
100
AcDbSpline
 70
8
 71
3
 72
8
 73
4
 74
0
 40
0
 40
0
 40
0
 40
0
 40
1
 40
1
 40
1
 40
1
 10
54.645441
 20
284.137465
 30
0.0
 10
54.645441
 20
284.896281
 30
0.0
 10
54.240617
 20
285.597456
 30
0.0
 10
53.583463
 20
285.976864
 30
0.0
  0
SPLINE
  5
10f
100
AcDbEntity
  8
0
 62
1
100
AcDbSpline
 70
8
 71
3
 72
8
 73
4
 74
0
 40
0
 40
0
 40
0
 40
0
 40
1
 40
1
 40
1
 40
1
 10
53.583463
 20
285.976864
 30
0.0
 10
52.926309
 20
286.356273
 30
0.0
 10
52.116661
 20
286.356273
 30
0.0
 10
51.459507
 20
285.976864
 30
0.0
  0
SPLINE
  5
110
100
AcDbEntity
  8
0
 62
1
100
AcDbSpline
 70
8
 71
3
 72
8
 73
4
 74
0
 40
0
 40
0
 40
0
 40
0
 40
1
 40
1
 40
1
 40
1
 10
51.459507
 20
285.976864
 30
0.0
 10
50.802353
 20
285.597456
 30
0.0
 10
50.397529
 20
284.896281
 30
0.0
 10
50.397529
 20
284.137465
 30
0.0
  0
SPLINE
  5
111
100
AcDbEntity
  8
0
 62
1
100
AcDbSpline
 70
8
 71
3
 72
8
 73
4
 74
0
 40
0
 40
0
 40
0
 40
0
 40
1
 40
1
 40
1
 40
1
 10
50.397529
 20
284.137465
 30
0.0
 10
50.397529
 20
283.378649
 30
0.0
 10
50.802353
 20
282.677473
 30
0.0
 10
51.459507
 20
282.298065
 30
0.0
  0
SPLINE
  5
112
100
AcDbEntity
  8
0
 62
1
100
AcDbSpline
 70
8
 71
3
 72
8
 73
4
 74
0
 40
0
 40
0
 40
0
 40
0
 40
1
 40
1
 40
1
 40
1
 10
51.459507
 20
282.298065
 30
0.0
 10
52.116661
 20
281.918657
 30
0.0
 10
52.926309
 20
281.918657
 30
0.0
 10
53.583463
 20
282.298065
 30
0.0
  0
SPLINE
  5
113
100
AcDbEntity
  8
0
 62
1
100
AcDbSpline
 70
8
 71
3
 72
8
 73
4
 74
0
 40
0
 40
0
 40
0
 40
0
 40
1
 40
1
 40
1
 40
1
 10
53.583463
 20
282.298065
 30
0.0
 10
54.240617
 20
282.677473
 30
0.0
 10
54.645441
 20
283.378649
 30
0.0
 10
54.645441
 20
284.137465
 30
0.0
  0
LINE
  5
114
100
AcDbEntity
  8
0
 62
1
100
AcDbLine
 10
54.645441
 20
284.137465
 30
0.0
 11
54.645441
 21
284.137465
 31
0.0
  0
SPLINE
  5
115
100
AcDbEntity
  8
0
 62
1
100
AcDbSpline
 70
8
 71
3
 72
8
 73
4
 74
0
 40
0
 40
0
 40
0
 40
0
 40
1
 40
1
 40
1
 40
1
 10
10.728840
 20
284.137465
 30
0.0
 10
10.729108
 20
284.896460
 30
0.0
 10
10.324343
 20
285.597914
 30
0.0
 10
9.667079
 20
285.977489
 30
0.0
  0
SPLINE
  5
116
100
AcDbEntity
  8
0
 62
1
100
AcDbSpline
 70
8
 71
3
 72
8
 73
4
 74
0
 40
0
 40
0
 40
0
 40
0
 40
1
 40
1
 40
1
 40
1
 10
9.667079
 20
285.977489
 30
0.0
 10
9.009814
 20
286.357064
 30
0.0
 10
8.199954
 20
286.357064
 30
0.0
 10
7.542690
 20
285.977489
 30
0.0
  0
SPLINE
  5
117
100
AcDbEntity
  8
0
 62
1
100
AcDbSpline
 70
8
 71
3
 72
8
 73
4
 74
0
 40
0
 40
0
 40
0
 40
0
 40
1
 40
1
 40
1
 40
1
 10
7.542690
 20
285.977489
 30
0.0
 10
6.885426
 20
285.597914
 30
0.0
 10
6.480661
 20
284.896460
 30
0.0
 10
6.480929
 20
284.137465
 30
0.0
  0
SPLINE
  5
118
100
AcDbEntity
  8
0
 62
1
100
AcDbSpline
 70
8
 71
3
 72
8
 73
4
 74
0
 40
0
 40
0
 40
0
 40
0
 40
1
 40
1
 40
1
 40
1
 10
6.480929
 20
284.137465
 30
0.0
 10
6.480661
 20
283.378470
 30
0.0
 10
6.885426
 20
282.677015
 30
0.0
 10
7.542690
 20
282.297441
 30
0.0
  0
SPLINE
  5
119
100
AcDbEntity
  8
0
 62
1
100
AcDbSpline
 70
8
 71
3
 72
8
 73
4
 74
0
 40
0
 40
0
 40
0
 40
0
 40
1
 40
1
 40
1
 40
1
 10
7.542690
 20
282.297441
 30
0.0
 10
8.199954
 20
281.917866
 30
0.0
 10
9.009814
 20
281.917866
 30
0.0
 10
9.667079
 20
282.297441
 30
0.0
  0
SPLINE
  5
11a
100
AcDbEntity
  8
0
 62
1
100
AcDbSpline
 70
8
 71
3
 72
8
 73
4
 74
0
 40
0
 40
0
 40
0
 40
0
 40
1
 40
1
 40
1
 40
1
 10
9.667079
 20
282.297441
 30
0.0
 10
10.324343
 20
282.677015
 30
0.0
 10
10.729108
 20
283.378470
 30
0.0
 10
10.728840
 20
284.137465
 30
0.0
  0
LINE
  5
11b
100
AcDbEntity
  8
0
 62
1
100
AcDbLine
 10
10.728840
 20
284.137465
 30
0.0
 11
10.728840
 21
284.137465
 31
0.0
  0
SPLINE
  5
11c
100
AcDbEntity
  8
0
 62
5
100
AcDbSpline
 70
8
 71
3
 72
8
 73
4
 74
0
 40
0
 40
0
 40
0
 40
0
 40
1
 40
1
 40
1
 40
1
 10
27.241669
 20
290.029467
 30
0.0
 10
27.241669
 20
290.120758
 30
0.0
 10
27.260137
 20
290.206403
 30
0.0
 10
27.296912
 20
290.287209
 30
0.0
  0
SPLINE
  5
11d
100
AcDbEntity
  8
0
 62
5
100
AcDbSpline
 70
8
 71
3
 72
8
 73
4
 74
0
 40
0
 40
0
 40
0
 40
0
 40
1
 40
1
 40
1
 40
1
 10
27.296912
 20
290.287209
 30
0.0
 10
27.334250
 20
290.367854
 30
0.0
 10
27.383039
 20
290.437289
 30
0.0
 10
27.444171
 20
290.496321
 30
0.0
  0
SPLINE
  5
11e
100
AcDbEntity
  8
0
 62
5
100
AcDbSpline
 70
8
 71
3
 72
8
 73
4
 74
0
 40
0
 40
0
 40
0
 40
0
 40
1
 40
1
 40
1
 40
1
 10
27.444171
 20
290.496321
 30
0.0
 10
27.505218
 20
290.554870
 30
0.0
 10
27.575944
 20
290.601643
 30
0.0
 10
27.656266
 20
290.636804
 30
0.0
  0
SPLINE
  5
11f
100
AcDbEntity
  8
0
 62
5
100
AcDbSpline
 70
8
 71
3
 72
8
 73
4
 74
0
 40
0
 40
0
 40
0
 40
0
 40
1
 40
1
 40
1
 40
1
 10
27.656266
 20
290.636804
 30
0.0
 10
27.737073
 20
290.671563
 30
0.0
 10
27.823120
 20
290.688982
 30
0.0
 10
27.914650
 20
290.688982
 30
0.0
  0
SPLINE
  5
120
100
AcDbEntity
  8
0
 62
5
100
AcDbSpline
 70
8
 71
3
 72
8
 73
4
 74
0
 40
0
 40
0
 40
0
 40
0
 40
1
 40
1
 40
1
 40
1
 10
27.914650
 20
290.688982
 30
0.0
 10
28.049490
 20
290.688982
 30
0.0
 10
28.171185
 20
290.648822
 30
0.0
 10
28.280135
 20
290.568337
 30
0.0
  0
SPLINE
  5
121
100
AcDbEntity
  8
0
 62
5
100
AcDbSpline
 70
8
 71
3
 72
8
 73
4
 74
0
 40
0
 40
0
 40
0
 40
0
 40
1
 40
1
 40
1
 40
1
 10
28.280135
 20
290.568337
 30
0.0
 10
28.388683
 20
290.487451
 30
0.0
 10
28.443280
 20
290.364306
 30
0.0
 10
28.443280
 20
290.199225
 30
0.0
  0
SPLINE
  5
122
100
AcDbEntity
  8
0
 62
5
100
AcDbSpline
 70
8
 71
3
 72
8
 73
4
 74
0
 40
0
 40
0
 40
0
 40
0
 40
1
 40
1
 40
1
 40
1
 10
28.443280
 20
290.199225
 30
0.0
 10
28.443280
 20
290.107612
 30
0.0
 10
28.424812
 20
290.021644
 30
0.0
 10
28.387717
 20
289.941001
 30
0.0
  0
SPLINE
  5
123
100
AcDbEntity
  8
0
 62
5
100
AcDbSpline
 70
8
 71
3
 72
8
 73
4
 74
0
 40
0
 40
0
 40
0
 40
0
 40
1
 40
1
 40
1
 40
1
 10
28.387717
 20
289.941001
 30
0.0
 10
28.350861
 20
289.860356
 30
0.0
 10
28.302072
 20
289.790920
 30
0.0
 10
28.240942
 20
289.731887
 30
0.0
  0
SPLINE
  5
124
100
AcDbEntity
  8
0
 62
5
100
AcDbSpline
 70
8
 71
3
 72
8
 73
4
 74
0
 40
0
 40
0
 40
0
 40
0
 40
1
 40
1
 40
1
 40
1
 10
28.240942
 20
289.731887
 30
0.0
 10
28.180379
 20
289.673258
 30
0.0
 10
28.109008
 20
289.626646
 30
0.0
 10
28.028847
 20
289.591725
 30
0.0
  0
SPLINE
  5
125
100
AcDbEntity
  8
0
 62
5
100
AcDbSpline
 70
8
 71
3
 72
8
 73
4
 74
0
 40
0
 40
0
 40
0
 40
0
 40
1
 40
1
 40
1
 40
1
 10
28.028847
 20
289.591725
 30
0.0
 10
27.947959
 20
289.556404
 30
0.0
 10
27.862313
 20
289.539710
 30
0.0
 10
27.771024
 20
289.539710
 30
0.0
  0
SPLINE
  5
126
100
AcDbEntity
  8
0
 62
5
100
AcDbSpline
 70
8
 71
3
 72
8
 73
4
 74
0
 40
0
 40
0
 40
0
 40
0
 40
1
 40
1
 40
1
 40
1
 10
27.771024
 20
289.539710
 30
0.0
 10
27.636105
 20
289.539710
 30
0.0
 10
27.513846
 20
289.579872
 30
0.0
 10
27.405219
 20
289.660356
 30
0.0
  0
SPLINE
  5
127
100
AcDbEntity
  8
0
 62
5
100
AcDbSpline
 70
8
 71
3
 72
8
 73
4
 74
0
 40
0
 40
0
 40
0
 40
0
 40
1
 40
1
 40
1
 40
1
 10
27.405219
 20
289.660356
 30
0.0
 10
27.295782
 20
289.740354
 30
0.0
 10
27.241669
 20
289.863501
 30
0.0
 10
27.241669
 20
290.029467
 30
0.0
  0
SPLINE
  5
128
100
AcDbEntity
  8
0
 62
5
100
AcDbSpline
 70
8
 71
3
 72
8
 73
4
 74
0
 40
0
 40
0
 40
0
 40
0
 40
1
 40
1
 40
1
 40
1
 10
22.557131
 20
287.550522
 30
0.0
 10
22.212453
 20
286.167862
 30
0.0
 10
20.812134
 20
285.326655
 30
0.0
 10
19.429556
 20
285.671251
 30
0.0
  0
SPLINE
  5
129
100
AcDbEntity
  8
0
 62
5
100
AcDbSpline
 70
8
 71
3
 72
8
 73
4
 74
0
 40
0
 40
0
 40
0
 40
0
 40
1
 40
1
 40
1
 40
1
 10
21.191795
 20
288.542357
 30
0.0
 10
21.243166
 20
288.885745
 30
0.0
 10
20.981714
 20
289.070341
 30
0.0
 10
20.624133
 20
289.193486
 30
0.0
  0
SPLINE
  5
12a
100
AcDbEntity
  8
0
 62
5
100
AcDbSpline
 70
8
 71
3
 72
8
 73
4
 74
0
 40
0
 40
0
 40
0
 40
0
 40
1
 40
1
 40
1
 40
1
 10
20.344135
 20
289.276308
 30
0.0
 10
20.269700
 20
289.294856
 30
0.0
 10
20.193247
 20
289.312356
 30
0.0
 10
20.117361
 20
289.329695
 30
0.0
  0
SPLINE
  5
12b
100
AcDbEntity
  8
0
 62
5
100
AcDbSpline
 70
8
 71
3
 72
8
 73
4
 74
0
 40
0
 40
0
 40
0
 40
0
 40
1
 40
1
 40
1
 40
1
 10
19.832039
 20
289.391147
 30
0.0
 10
19.770427
 20
289.405178
 30
0.0
 10
19.709944
 20
289.419050
 30
0.0
 10
19.651232
 20
289.433646
 30
0.0
  0
SPLINE
  5
12c
100
AcDbEntity
  8
0
 62
5
100
AcDbSpline
 70
8
 71
3
 72
8
 73
4
 74
0
 40
0
 40
0
 40
0
 40
0
 40
1
 40
1
 40
1
 40
1
 10
19.185750
 20
289.230178
 30
0.0
 10
19.325804
 20
289.198081
 30
0.0
 10
19.394325
 20
289.181039
 30
0.0
 10
19.391314
 20
289.179050
 30
0.0
  0
SPLINE
  5
12d
100
AcDbEntity
  8
0
 62
5
100
AcDbSpline
 70
8
 71
3
 72
8
 73
4
 74
0
 40
0
 40
0
 40
0
 40
0
 40
1
 40
1
 40
1
 40
1
 10
19.391314
 20
289.179050
 30
0.0
 10
19.506071
 20
289.150420
 30
0.0
 10
19.526798
 20
289.074534
 30
0.0
 10
19.523331
 20
289.014373
 30
0.0
  0
SPLINE
  5
12e
100
AcDbEntity
  8
0
 62
5
100
AcDbSpline
 70
8
 71
3
 72
8
 73
4
 74
0
 40
0
 40
0
 40
0
 40
0
 40
1
 40
1
 40
1
 40
1
 10
19.391152
 20
288.484456
 30
0.0
 10
19.399137
 20
288.482445
 30
0.0
 10
19.409379
 20
288.479455
 30
0.0
 10
19.420669
 20
288.475018
 30
0.0
  0
SPLINE
  5
12f
100
AcDbEntity
  8
0
 62
5
100
AcDbSpline
 70
8
 71
3
 72
8
 73
4
 74
0
 40
0
 40
0
 40
0
 40
0
 40
1
 40
1
 40
1
 40
1
 10
19.420669
 20
288.475019
 30
0.0
 10
19.411151
 20
288.477347
 30
0.0
 10
19.401074
 20
288.479938
 30
0.0
 10
19.390749
 20
288.482440
 30
0.0
  0
SPLINE
  5
130
100
AcDbEntity
  8
0
 62
5
100
AcDbSpline
 70
8
 71
3
 72
8
 73
4
 74
0
 40
0
 40
0
 40
0
 40
0
 40
1
 40
1
 40
1
 40
1
 10
19.205588
 20
287.740102
 30
0.0
 10
19.191557
 20
287.705263
 30
0.0
 10
19.155911
 20
287.653085
 30
0.0
 10
19.075830
 20
287.672843
 30
0.0
  0
SPLINE
  5
131
100
AcDbEntity
  8
0
 62
5
100
AcDbSpline
 70
8
 71
3
 72
8
 73
4
 74
0
 40
0
 40
0
 40
0
 40
0
 40
1
 40
1
 40
1
 40
1
 10
19.075830
 20
287.672843
 30
0.0
 10
19.077656
 20
287.670102
 30
0.0
 10
19.009057
 20
287.687226
 30
0.0
 10
18.870024
 20
287.724214
 30
0.0
  0
SPLINE
  5
132
100
AcDbEntity
  8
0
 62
5
100
AcDbSpline
 70
8
 71
3
 72
8
 73
4
 74
0
 40
0
 40
0
 40
0
 40
0
 40
1
 40
1
 40
1
 40
1
 10
19.097926
 20
287.308087
 30
0.0
 10
19.166394
 20
287.290907
 30
0.0
 10
19.233573
 20
287.273006
 30
0.0
 10
19.299783
 20
287.256069
 30
0.0
  0
SPLINE
  5
133
100
AcDbEntity
  8
0
 62
5
100
AcDbSpline
 70
8
 71
3
 72
8
 73
4
 74
0
 40
0
 40
0
 40
0
 40
0
 40
1
 40
1
 40
1
 40
1
 10
19.581395
 20
287.180585
 30
0.0
 10
19.658653
 20
287.159617
 30
0.0
 10
19.733572
 20
287.140265
 30
0.0
 10
19.807039
 20
287.121956
 30
0.0
  0
SPLINE
  5
134
100
AcDbEntity
  8
0
 62
5
100
AcDbSpline
 70
8
 71
3
 72
8
 73
4
 74
0
 40
0
 40
0
 40
0
 40
0
 40
1
 40
1
 40
1
 40
1
 10
20.091717
 20
287.057683
 30
0.0
 10
20.574456
 20
286.966312
 30
0.0
 10
20.937601
 20
287.003166
 30
0.0
 10
21.090425
 20
287.439779
 30
0.0
  0
SPLINE
  5
135
100
AcDbEntity
  8
0
 62
5
100
AcDbSpline
 70
8
 71
3
 72
8
 73
4
 74
0
 40
0
 40
0
 40
0
 40
0
 40
1
 40
1
 40
1
 40
1
 10
21.090425
 20
287.439779
 30
0.0
 10
21.213569
 20
287.791391
 30
0.0
 10
21.084294
 20
287.994214
 30
0.0
 10
20.830262
 20
288.126553
 30
0.0
  0
SPLINE
  5
136
100
AcDbEntity
  8
0
 62
5
100
AcDbSpline
 70
8
 71
3
 72
8
 73
4
 74
0
 40
0
 40
0
 40
0
 40
0
 40
1
 40
1
 40
1
 40
1
 10
20.830262
 20
288.126553
 30
0.0
 10
21.015263
 20
288.169294
 30
0.0
 10
21.154618
 20
288.290987
 30
0.0
 10
21.191795
 20
288.542357
 30
0.0
  0
SPLINE
  5
137
100
AcDbEntity
  8
0
 62
5
100
AcDbSpline
 70
8
 71
3
 72
8
 73
4
 74
0
 40
0
 40
0
 40
0
 40
0
 40
1
 40
1
 40
1
 40
1
 10
19.429556
 20
285.671251
 30
0.0
 10
18.047461
 20
286.016008
 30
0.0
 10
17.206012
 20
287.416327
 30
0.0
 10
17.550931
 20
288.798744
 30
0.0
  0
SPLINE
  5
138
100
AcDbEntity
  8
0
 62
5
100
AcDbSpline
 70
8
 71
3
 72
8
 73
4
 74
0
 40
0
 40
0
 40
0
 40
0
 40
1
 40
1
 40
1
 40
1
 10
17.550931
 20
288.798744
 30
0.0
 10
17.895365
 20
290.181484
 30
0.0
 10
19.295686
 20
291.022853
 30
0.0
 10
20.677859
 20
290.678177
 30
0.0
  0
SPLINE
  5
139
100
AcDbEntity
  8
0
 62
5
100
AcDbSpline
 70
8
 71
3
 72
8
 73
4
 74
0
 40
0
 40
0
 40
0
 40
0
 40
1
 40
1
 40
1
 40
1
 10
20.677859
 20
290.678177
 30
0.0
 10
22.060518
 20
290.333498
 30
0.0
 10
22.901728
 20
288.933019
 30
0.0
 10
22.557131
 20
287.550522
 30
0.0
  0
SPLINE
  5
13a
100
AcDbEntity
  8
0
 62
5
100
AcDbSpline
 70
8
 71
3
 72
8
 73
4
 74
0
 40
0
 40
0
 40
0
 40
0
 40
1
 40
1
 40
1
 40
1
 10
20.632441
 20
288.547437
 30
0.0
 10
20.552602
 20
288.227600
 30
0.0
 10
20.059781
 20
288.390101
 30
0.0
 10
19.900022
 20
288.429939
 30
0.0
  0
SPLINE
  5
13b
100
AcDbEntity
  8
0
 62
5
100
AcDbSpline
 70
8
 71
3
 72
8
 73
4
 74
0
 40
0
 40
0
 40
0
 40
0
 40
1
 40
1
 40
1
 40
1
 10
20.040991
 20
288.995260
 30
0.0
 10
20.200748
 20
288.955422
 30
0.0
 10
20.715585
 20
288.881067
 30
0.0
 10
20.632441
 20
288.547437
 30
0.0
  0
SPLINE
  5
13c
100
AcDbEntity
  8
0
 62
5
100
AcDbSpline
 70
8
 71
3
 72
8
 73
4
 74
0
 40
0
 40
0
 40
0
 40
0
 40
1
 40
1
 40
1
 40
1
 10
20.544859
 20
287.635264
 30
0.0
 10
20.457360
 20
287.283732
 30
0.0
 10
19.865346
 20
287.473650
 30
0.0
 10
19.673329
 20
287.521391
 30
0.0
  0
SPLINE
  5
13d
100
AcDbEntity
  8
0
 62
5
100
AcDbSpline
 70
8
 71
3
 72
8
 73
4
 74
0
 40
0
 40
0
 40
0
 40
0
 40
1
 40
1
 40
1
 40
1
 10
19.828893
 20
288.144696
 30
0.0
 10
20.020828
 20
288.096793
 30
0.0
 10
20.636311
 20
288.001874
 30
0.0
 10
20.544859
 20
287.635264
 30
0.0
  0
SPLINE
  5
13e
100
AcDbEntity
  8
0
 62
5
100
AcDbSpline
 70
8
 71
3
 72
8
 73
4
 74
0
 40
0
 40
0
 40
0
 40
0
 40
1
 40
1
 40
1
 40
1
 10
24.187200
 20
286.398014
 30
0.0
 10
24.339619
 20
286.398014
 30
0.0
 10
24.483247
 20
286.435516
 30
0.0
 10
24.618166
 20
286.509063
 30
0.0
  0
SPLINE
  5
13f
100
AcDbEntity
  8
0
 62
5
100
AcDbSpline
 70
8
 71
3
 72
8
 73
4
 74
0
 40
0
 40
0
 40
0
 40
0
 40
1
 40
1
 40
1
 40
1
 10
25.036070
 20
289.193977
 30
0.0
 10
25.245424
 20
289.193977
 30
0.0
 10
25.426148
 20
289.156478
 30
0.0
 10
25.578165
 20
289.082848
 30
0.0
  0
SPLINE
  5
140
100
AcDbEntity
  8
0
 62
5
100
AcDbSpline
 70
8
 71
3
 72
8
 73
4
 74
0
 40
0
 40
0
 40
0
 40
0
 40
1
 40
1
 40
1
 40
1
 10
25.578165
 20
289.082848
 30
0.0
 10
25.730826
 20
289.008494
 30
0.0
 10
25.856794
 20
288.908333
 30
0.0
 10
25.957842
 20
288.782365
 30
0.0
  0
SPLINE
  5
141
100
AcDbEntity
  8
0
 62
5
100
AcDbSpline
 70
8
 71
3
 72
8
 73
4
 74
0
 40
0
 40
0
 40
0
 40
0
 40
1
 40
1
 40
1
 40
1
 10
25.957842
 20
288.782365
 30
0.0
 10
26.057439
 20
288.655752
 30
0.0
 10
26.131631
 20
288.507768
 30
0.0
 10
26.179616
 20
288.338172
 30
0.0
  0
SPLINE
  5
142
100
AcDbEntity
  8
0
 62
5
100
AcDbSpline
 70
8
 71
3
 72
8
 73
4
 74
0
 40
0
 40
0
 40
0
 40
0
 40
1
 40
1
 40
1
 40
1
 10
26.179616
 20
288.338172
 30
0.0
 10
26.227195
 20
288.168091
 30
0.0
 10
26.251067
 20
287.985271
 30
0.0
 10
26.251067
 20
287.789626
 30
0.0
  0
SPLINE
  5
143
100
AcDbEntity
  8
0
 62
5
100
AcDbSpline
 70
8
 71
3
 72
8
 73
4
 74
0
 40
0
 40
0
 40
0
 40
0
 40
1
 40
1
 40
1
 40
1
 10
26.251067
 20
287.789626
 30
0.0
 10
26.251067
 20
287.488900
 30
0.0
 10
26.195986
 20
287.204949
 30
0.0
 10
26.084697
 20
286.937208
 30
0.0
  0
SPLINE
  5
144
100
AcDbEntity
  8
0
 62
5
100
AcDbSpline
 70
8
 71
3
 72
8
 73
4
 74
0
 40
0
 40
0
 40
0
 40
0
 40
1
 40
1
 40
1
 40
1
 10
26.084697
 20
286.937208
 30
0.0
 10
25.973488
 20
286.669063
 30
0.0
 10
25.822600
 20
286.436483
 30
0.0
 10
25.630665
 20
286.238015
 30
0.0
  0
SPLINE
  5
145
100
AcDbEntity
  8
0
 62
5
100
AcDbSpline
 70
8
 71
3
 72
8
 73
4
 74
0
 40
0
 40
0
 40
0
 40
0
 40
1
 40
1
 40
1
 40
1
 10
25.630665
 20
286.238015
 30
0.0
 10
25.438890
 20
286.039871
 30
0.0
 10
25.212519
 20
285.883742
 30
0.0
 10
24.951392
 20
285.768258
 30
0.0
  0
SPLINE
  5
146
100
AcDbEntity
  8
0
 62
5
100
AcDbSpline
 70
8
 71
3
 72
8
 73
4
 74
0
 40
0
 40
0
 40
0
 40
0
 40
1
 40
1
 40
1
 40
1
 10
24.951392
 20
285.768258
 30
0.0
 10
24.690667
 20
285.652856
 30
0.0
 10
24.407200
 20
285.595114
 30
0.0
 10
24.102844
 20
285.595114
 30
0.0
  0
SPLINE
  5
147
100
AcDbEntity
  8
0
 62
5
100
AcDbSpline
 70
8
 71
3
 72
8
 73
4
 74
0
 40
0
 40
0
 40
0
 40
0
 40
1
 40
1
 40
1
 40
1
 10
24.102844
 20
285.595114
 30
0.0
 10
24.063491
 20
285.595114
 30
0.0
 10
23.994216
 20
285.596251
 30
0.0
 10
23.896556
 20
285.598260
 30
0.0
  0
SPLINE
  5
148
100
AcDbEntity
  8
0
 62
5
100
AcDbSpline
 70
8
 71
3
 72
8
 73
4
 74
0
 40
0
 40
0
 40
0
 40
0
 40
1
 40
1
 40
1
 40
1
 10
23.896556
 20
285.598259
 30
0.0
 10
23.798813
 20
285.600191
 30
0.0
 10
23.686475
 20
285.610274
 30
0.0
 10
23.560587
 20
285.627292
 30
0.0
  0
SPLINE
  5
149
100
AcDbEntity
  8
0
 62
5
100
AcDbSpline
 70
8
 71
3
 72
8
 73
4
 74
0
 40
0
 40
0
 40
0
 40
0
 40
1
 40
1
 40
1
 40
1
 10
23.560587
 20
285.627292
 30
0.0
 10
23.434057
 20
285.644950
 30
0.0
 10
23.300184
 20
285.671080
 30
0.0
 10
23.158816
 20
285.706161
 30
0.0
  0
SPLINE
  5
14a
100
AcDbEntity
  8
0
 62
5
100
AcDbSpline
 70
8
 71
3
 72
8
 73
4
 74
0
 40
0
 40
0
 40
0
 40
0
 40
1
 40
1
 40
1
 40
1
 10
23.158816
 20
285.706161
 30
0.0
 10
23.017525
 20
285.740517
 30
0.0
 10
22.883332
 20
285.788580
 30
0.0
 10
22.756960
 20
285.849710
 30
0.0
  0
SPLINE
  5
14b
100
AcDbEntity
  8
0
 62
5
100
AcDbSpline
 70
8
 71
3
 72
8
 73
4
 74
0
 40
0
 40
0
 40
0
 40
0
 40
1
 40
1
 40
1
 40
1
 10
24.494457
 20
289.069783
 30
0.0
 10
24.581069
 20
289.108817
 30
0.0
 10
24.668328
 20
289.139059
 30
0.0
 10
24.755424
 20
289.161075
 30
0.0
  0
SPLINE
  5
14c
100
AcDbEntity
  8
0
 62
5
100
AcDbSpline
 70
8
 71
3
 72
8
 73
4
 74
0
 40
0
 40
0
 40
0
 40
0
 40
1
 40
1
 40
1
 40
1
 10
24.755424
 20
289.161075
 30
0.0
 10
24.842601
 20
289.182686
 30
0.0
 10
24.936149
 20
289.193977
 30
0.0
 10
25.036070
 20
289.193977
 30
0.0
  0
SPLINE
  5
14d
100
AcDbEntity
  8
0
 62
5
100
AcDbSpline
 70
8
 71
3
 72
8
 73
4
 74
0
 40
0
 40
0
 40
0
 40
0
 40
1
 40
1
 40
1
 40
1
 10
24.618166
 20
286.509063
 30
0.0
 10
24.753408
 20
286.582773
 30
0.0
 10
24.870264
 20
286.682290
 30
0.0
 10
24.968084
 20
286.806241
 30
0.0
  0
SPLINE
  5
14e
100
AcDbEntity
  8
0
 62
5
100
AcDbSpline
 70
8
 71
3
 72
8
 73
4
 74
0
 40
0
 40
0
 40
0
 40
0
 40
1
 40
1
 40
1
 40
1
 10
24.968084
 20
286.806241
 30
0.0
 10
25.065907
 20
286.930837
 30
0.0
 10
25.143246
 20
287.071079
 30
0.0
 10
25.199779
 20
287.227853
 30
0.0
  0
SPLINE
  5
14f
100
AcDbEntity
  8
0
 62
5
100
AcDbSpline
 70
8
 71
3
 72
8
 73
4
 74
0
 40
0
 40
0
 40
0
 40
0
 40
1
 40
1
 40
1
 40
1
 10
25.199779
 20
287.227853
 30
0.0
 10
25.256230
 20
287.384464
 30
0.0
 10
25.284697
 20
287.547932
 30
0.0
 10
25.284697
 20
287.717932
 30
0.0
  0
SPLINE
  5
150
100
AcDbEntity
  8
0
 62
5
100
AcDbSpline
 70
8
 71
3
 72
8
 73
4
 74
0
 40
0
 40
0
 40
0
 40
0
 40
1
 40
1
 40
1
 40
1
 10
25.284697
 20
287.717932
 30
0.0
 10
25.284697
 20
287.927044
 30
0.0
 10
25.249859
 20
288.089867
 30
0.0
 10
25.180182
 20
288.207769
 30
0.0
  0
SPLINE
  5
151
100
AcDbEntity
  8
0
 62
5
100
AcDbSpline
 70
8
 71
3
 72
8
 73
4
 74
0
 40
0
 40
0
 40
0
 40
0
 40
1
 40
1
 40
1
 40
1
 10
25.180182
 20
288.207769
 30
0.0
 10
25.110584
 20
288.325108
 30
0.0
 10
24.981876
 20
288.384141
 30
0.0
 10
24.794860
 20
288.384141
 30
0.0
  0
SPLINE
  5
152
100
AcDbEntity
  8
0
 62
5
100
AcDbSpline
 70
8
 71
3
 72
8
 73
4
 74
0
 40
0
 40
0
 40
0
 40
0
 40
1
 40
1
 40
1
 40
1
 10
24.794860
 20
288.384141
 30
0.0
 10
24.733488
 20
288.384141
 30
0.0
 10
24.654619
 20
288.372447
 30
0.0
 10
24.556716
 20
288.351559
 30
0.0
  0
SPLINE
  5
153
100
AcDbEntity
  8
0
 62
5
100
AcDbSpline
 70
8
 71
3
 72
8
 73
4
 74
0
 40
0
 40
0
 40
0
 40
0
 40
1
 40
1
 40
1
 40
1
 10
24.556716
 20
288.351559
 30
0.0
 10
24.458409
 20
288.329381
 30
0.0
 10
24.370505
 20
288.283333
 30
0.0
 10
24.291796
 20
288.214061
 30
0.0
  0
SPLINE
  5
154
100
AcDbEntity
  8
0
 62
5
100
AcDbSpline
 70
8
 71
3
 72
8
 73
4
 74
0
 40
0
 40
0
 40
0
 40
0
 40
1
 40
1
 40
1
 40
1
 10
23.860990
 20
286.424708
 30
0.0
 10
23.886877
 20
286.420030
 30
0.0
 10
23.909943
 20
286.415757
 30
0.0
 10
23.929538
 20
286.411643
 30
0.0
  0
SPLINE
  5
155
100
AcDbEntity
  8
0
 62
5
100
AcDbSpline
 70
8
 71
3
 72
8
 73
4
 74
0
 40
0
 40
0
 40
0
 40
0
 40
1
 40
1
 40
1
 40
1
 10
23.929538
 20
286.411643
 30
0.0
 10
23.948731
 20
286.407129
 30
0.0
 10
23.969941
 20
286.403984
 30
0.0
 10
23.990991
 20
286.401885
 30
0.0
  0
SPLINE
  5
156
100
AcDbEntity
  8
0
 62
5
100
AcDbSpline
 70
8
 71
3
 72
8
 73
4
 74
0
 40
0
 40
0
 40
0
 40
0
 40
1
 40
1
 40
1
 40
1
 10
23.990991
 20
286.401887
 30
0.0
 10
24.013409
 20
286.399373
 30
0.0
 10
24.038974
 20
286.398098
 30
0.0
 10
24.069862
 20
286.398098
 30
0.0
  0
SPLINE
  5
157
100
AcDbEntity
  8
0
 62
5
100
AcDbSpline
 70
8
 71
3
 72
8
 73
4
 74
0
 40
0
 40
0
 40
0
 40
0
 40
1
 40
1
 40
1
 40
1
 10
24.069862
 20
286.398096
 30
0.0
 10
24.100748
 20
286.398096
 30
0.0
 10
24.139297
 20
286.398014
 30
0.0
 10
24.187200
 20
286.398014
 30
0.0
  0
SPLINE
  5
158
100
AcDbEntity
  8
0
 62
5
100
AcDbSpline
 70
8
 71
3
 72
8
 73
4
 74
0
 40
0
 40
0
 40
0
 40
0
 40
1
 40
1
 40
1
 40
1
 10
39.576460
 20
288.964954
 30
0.0
 10
39.649765
 20
288.986404
 30
0.0
 10
39.731781
 20
289.012211
 30
0.0
 10
39.820813
 20
289.040276
 30
0.0
  0
SPLINE
  5
159
100
AcDbEntity
  8
0
 62
5
100
AcDbSpline
 70
8
 71
3
 72
8
 73
4
 74
0
 40
0
 40
0
 40
0
 40
0
 40
1
 40
1
 40
1
 40
1
 10
39.820813
 20
289.040276
 30
0.0
 10
39.910329
 20
289.068341
 30
0.0
 10
40.010249
 20
289.094388
 30
0.0
 10
40.121861
 20
289.117938
 30
0.0
  0
SPLINE
  5
15a
100
AcDbEntity
  8
0
 62
5
100
AcDbSpline
 70
8
 71
3
 72
8
 73
4
 74
0
 40
0
 40
0
 40
0
 40
0
 40
1
 40
1
 40
1
 40
1
 10
40.121861
 20
289.117938
 30
0.0
 10
40.232264
 20
289.142290
 30
0.0
 10
40.356861
 20
289.161969
 30
0.0
 10
40.493876
 20
289.177212
 30
0.0
  0
SPLINE
  5
15b
100
AcDbEntity
  8
0
 62
5
100
AcDbSpline
 70
8
 71
3
 72
8
 73
4
 74
0
 40
0
 40
0
 40
0
 40
0
 40
1
 40
1
 40
1
 40
1
 10
40.493876
 20
289.177212
 30
0.0
 10
40.630732
 20
289.192774
 30
0.0
 10
40.787021
 20
289.200355
 30
0.0
 10
40.960328
 20
289.200355
 30
0.0
  0
SPLINE
  5
15c
100
AcDbEntity
  8
0
 62
5
100
AcDbSpline
 70
8
 71
3
 72
8
 73
4
 74
0
 40
0
 40
0
 40
0
 40
0
 40
1
 40
1
 40
1
 40
1
 10
40.960328
 20
289.200355
 30
0.0
 10
41.470165
 20
289.200355
 30
0.0
 10
41.821698
 20
289.051889
 30
0.0
 10
42.015648
 20
288.755840
 30
0.0
  0
SPLINE
  5
15d
100
AcDbEntity
  8
0
 62
5
100
AcDbSpline
 70
8
 71
3
 72
8
 73
4
 74
0
 40
0
 40
0
 40
0
 40
0
 40
1
 40
1
 40
1
 40
1
 10
42.015648
 20
288.755840
 30
0.0
 10
42.209519
 20
288.459794
 30
0.0
 10
42.243065
 20
288.054713
 30
0.0
 10
42.117341
 20
287.541085
 30
0.0
  0
SPLINE
  5
15e
100
AcDbEntity
  8
0
 62
5
100
AcDbSpline
 70
8
 71
3
 72
8
 73
4
 74
0
 40
0
 40
0
 40
0
 40
0
 40
1
 40
1
 40
1
 40
1
 10
41.130569
 20
287.502134
 30
0.0
 10
41.156869
 20
287.615440
 30
0.0
 10
41.177504
 20
287.725117
 30
0.0
 10
41.192828
 20
287.832134
 30
0.0
  0
SPLINE
  5
15f
100
AcDbEntity
  8
0
 62
5
100
AcDbSpline
 70
8
 71
3
 72
8
 73
4
 74
0
 40
0
 40
0
 40
0
 40
0
 40
1
 40
1
 40
1
 40
1
 10
41.192828
 20
287.832134
 30
0.0
 10
41.208148
 20
287.938342
 30
0.0
 10
41.207354
 20
288.031971
 30
0.0
 10
41.189283
 20
288.112859
 30
0.0
  0
SPLINE
  5
160
100
AcDbEntity
  8
0
 62
5
100
AcDbSpline
 70
8
 71
3
 72
8
 73
4
 74
0
 40
0
 40
0
 40
0
 40
0
 40
1
 40
1
 40
1
 40
1
 10
41.189280
 20
288.112859
 30
0.0
 10
41.172109
 20
288.192858
 30
0.0
 10
41.131617
 20
288.258343
 30
0.0
 10
41.068876
 20
288.309067
 30
0.0
  0
SPLINE
  5
161
100
AcDbEntity
  8
0
 62
5
100
AcDbSpline
 70
8
 71
3
 72
8
 73
4
 74
0
 40
0
 40
0
 40
0
 40
0
 40
1
 40
1
 40
1
 40
1
 10
40.777988
 20
288.384068
 30
0.0
 10
40.652023
 20
288.384068
 30
0.0
 10
40.523716
 20
288.370519
 30
0.0
 10
40.392829
 20
288.344390
 30
0.0
  0
SPLINE
  5
162
100
AcDbEntity
  8
0
 62
5
100
AcDbSpline
 70
8
 71
3
 72
8
 73
4
 74
0
 40
0
 40
0
 40
0
 40
0
 40
1
 40
1
 40
1
 40
1
 10
41.068876
 20
288.309067
 30
0.0
 10
41.005085
 20
288.358986
 30
0.0
 10
40.908713
 20
288.384068
 30
0.0
 10
40.777988
 20
288.384068
 30
0.0
  0
SPLINE
  5
163
100
AcDbEntity
  8
0
 62
5
100
AcDbSpline
 70
8
 71
3
 72
8
 73
4
 74
0
 40
0
 40
0
 40
0
 40
0
 40
1
 40
1
 40
1
 40
1
 10
29.258271
 20
287.123005
 30
0.0
 10
29.231812
 20
287.023006
 30
0.0
 10
29.216898
 20
286.929457
 30
0.0
 10
29.212627
 20
286.842522
 30
0.0
  0
SPLINE
  5
164
100
AcDbEntity
  8
0
 62
5
100
AcDbSpline
 70
8
 71
3
 72
8
 73
4
 74
0
 40
0
 40
0
 40
0
 40
0
 40
1
 40
1
 40
1
 40
1
 10
29.212627
 20
286.842522
 30
0.0
 10
29.207865
 20
286.755103
 30
0.0
 10
29.218924
 20
286.680104
 30
0.0
 10
29.245044
 20
286.616958
 30
0.0
  0
SPLINE
  5
165
100
AcDbEntity
  8
0
 62
5
100
AcDbSpline
 70
8
 71
3
 72
8
 73
4
 74
0
 40
0
 40
0
 40
0
 40
0
 40
1
 40
1
 40
1
 40
1
 10
29.245044
 20
286.616958
 30
0.0
 10
29.271079
 20
286.553652
 30
0.0
 10
29.317786
 20
286.504782
 30
0.0
 10
29.385527
 20
286.470508
 30
0.0
  0
SPLINE
  5
166
100
AcDbEntity
  8
0
 62
5
100
AcDbSpline
 70
8
 71
3
 72
8
 73
4
 74
0
 40
0
 40
0
 40
0
 40
0
 40
1
 40
1
 40
1
 40
1
 10
29.385527
 20
286.470508
 30
0.0
 10
29.452946
 20
286.435344
 30
0.0
 10
29.549479
 20
286.417685
 30
0.0
 10
29.676013
 20
286.417685
 30
0.0
  0
SPLINE
  5
167
100
AcDbEntity
  8
0
 62
5
100
AcDbSpline
 70
8
 71
3
 72
8
 73
4
 74
0
 40
0
 40
0
 40
0
 40
0
 40
1
 40
1
 40
1
 40
1
 10
29.676013
 20
286.417685
 30
0.0
 10
29.780286
 20
286.417685
 30
0.0
 10
29.881978
 20
286.427604
 30
0.0
 10
29.980205
 20
286.447282
 30
0.0
  0
SPLINE
  5
168
100
AcDbEntity
  8
0
 62
5
100
AcDbSpline
 70
8
 71
3
 72
8
 73
4
 74
0
 40
0
 40
0
 40
0
 40
0
 40
1
 40
1
 40
1
 40
1
 10
29.980205
 20
286.447282
 30
0.0
 10
30.077865
 20
286.466554
 30
0.0
 10
30.176735
 20
286.493491
 30
0.0
 10
30.276895
 20
286.528812
 30
0.0
  0
SPLINE
  5
169
100
AcDbEntity
  8
0
 62
5
100
AcDbSpline
 70
8
 71
3
 72
8
 73
4
 74
0
 40
0
 40
0
 40
0
 40
0
 40
1
 40
1
 40
1
 40
1
 10
30.349074
 20
285.783976
 30
0.0
 10
30.218592
 20
285.736073
 30
0.0
 10
30.077140
 20
285.694863
 30
0.0
 10
29.924560
 20
285.660185
 30
0.0
  0
SPLINE
  5
16a
100
AcDbEntity
  8
0
 62
5
100
AcDbSpline
 70
8
 71
3
 72
8
 73
4
 74
0
 40
0
 40
0
 40
0
 40
0
 40
1
 40
1
 40
1
 40
1
 10
29.924560
 20
285.660185
 30
0.0
 10
29.771978
 20
285.625024
 30
0.0
 10
29.591175
 20
285.608169
 30
0.0
 10
29.382381
 20
285.608169
 30
0.0
  0
SPLINE
  5
16b
100
AcDbEntity
  8
0
 62
5
100
AcDbSpline
 70
8
 71
3
 72
8
 73
4
 74
0
 40
0
 40
0
 40
0
 40
0
 40
1
 40
1
 40
1
 40
1
 10
29.382381
 20
285.608169
 30
0.0
 10
29.081981
 20
285.608169
 30
0.0
 10
28.849159
 20
285.652767
 30
0.0
 10
28.683352
 20
285.741475
 30
0.0
  0
SPLINE
  5
16c
100
AcDbEntity
  8
0
 62
5
100
AcDbSpline
 70
8
 71
3
 72
8
 73
4
 74
0
 40
0
 40
0
 40
0
 40
0
 40
1
 40
1
 40
1
 40
1
 10
28.683352
 20
285.741475
 30
0.0
 10
28.517628
 20
285.830830
 30
0.0
 10
28.400610
 20
285.953088
 30
0.0
 10
28.330530
 20
286.107765
 30
0.0
  0
SPLINE
  5
16d
100
AcDbEntity
  8
0
 62
5
100
AcDbSpline
 70
8
 71
3
 72
8
 73
4
 74
0
 40
0
 40
0
 40
0
 40
0
 40
1
 40
1
 40
1
 40
1
 10
28.330530
 20
286.107765
 30
0.0
 10
28.261336
 20
286.261798
 30
0.0
 10
28.230452
 20
286.439459
 30
0.0
 10
28.239162
 20
286.639699
 30
0.0
  0
SPLINE
  5
16e
100
AcDbEntity
  8
0
 62
5
100
AcDbSpline
 70
8
 71
3
 72
8
 73
4
 74
0
 40
0
 40
0
 40
0
 40
0
 40
1
 40
1
 40
1
 40
1
 10
28.239162
 20
286.639699
 30
0.0
 10
28.248025
 20
286.840264
 30
0.0
 10
28.278272
 20
287.051312
 30
0.0
 10
28.330530
 20
287.273328
 30
0.0
  0
SPLINE
  5
16f
100
AcDbEntity
  8
0
 62
5
100
AcDbSpline
 70
8
 71
3
 72
8
 73
4
 74
0
 40
0
 40
0
 40
0
 40
0
 40
1
 40
1
 40
1
 40
1
 10
30.776540
 20
287.057587
 30
0.0
 10
30.776540
 20
287.353553
 30
0.0
 10
30.824443
 20
287.632504
 30
0.0
 10
30.920089
 20
287.893794
 30
0.0
  0
SPLINE
  5
170
100
AcDbEntity
  8
0
 62
5
100
AcDbSpline
 70
8
 71
3
 72
8
 73
4
 74
0
 40
0
 40
0
 40
0
 40
0
 40
1
 40
1
 40
1
 40
1
 10
30.920089
 20
287.893794
 30
0.0
 10
31.015654
 20
288.155246
 30
0.0
 10
31.153314
 20
288.383874
 30
0.0
 10
31.331863
 20
288.580003
 30
0.0
  0
SPLINE
  5
171
100
AcDbEntity
  8
0
 62
5
100
AcDbSpline
 70
8
 71
3
 72
8
 73
4
 74
0
 40
0
 40
0
 40
0
 40
0
 40
1
 40
1
 40
1
 40
1
 10
31.331863
 20
288.580003
 30
0.0
 10
31.509846
 20
288.775244
 30
0.0
 10
31.726621
 20
288.929922
 30
0.0
 10
31.981942
 20
289.043469
 30
0.0
  0
SPLINE
  5
172
100
AcDbEntity
  8
0
 62
5
100
AcDbSpline
 70
8
 71
3
 72
8
 73
4
 74
0
 40
0
 40
0
 40
0
 40
0
 40
1
 40
1
 40
1
 40
1
 10
31.981942
 20
289.043469
 30
0.0
 10
32.235894
 20
289.156373
 30
0.0
 10
32.520408
 20
289.213308
 30
0.0
 10
32.833797
 20
289.213308
 30
0.0
  0
SPLINE
  5
173
100
AcDbEntity
  8
0
 62
5
100
AcDbSpline
 70
8
 71
3
 72
8
 73
4
 74
0
 40
0
 40
0
 40
0
 40
0
 40
1
 40
1
 40
1
 40
1
 10
32.833797
 20
289.213308
 30
0.0
 10
33.030004
 20
289.213308
 30
0.0
 10
33.205327
 20
289.194760
 30
0.0
 10
33.359519
 20
289.157582
 30
0.0
  0
SPLINE
  5
174
100
AcDbEntity
  8
0
 62
5
100
AcDbSpline
 70
8
 71
3
 72
8
 73
4
 74
0
 40
0
 40
0
 40
0
 40
0
 40
1
 40
1
 40
1
 40
1
 10
33.359519
 20
289.157582
 30
0.0
 10
33.514440
 20
289.120082
 30
0.0
 10
33.654439
 20
289.071615
 30
0.0
 10
33.781132
 20
289.010809
 30
0.0
  0
SPLINE
  5
175
100
AcDbEntity
  8
0
 62
5
100
AcDbSpline
 70
8
 71
3
 72
8
 73
4
 74
0
 40
0
 40
0
 40
0
 40
0
 40
1
 40
1
 40
1
 40
1
 10
33.447829
 20
288.252744
 30
0.0
 10
33.360730
 20
288.288067
 30
0.0
 10
33.270328
 20
288.319196
 30
0.0
 10
33.176779
 20
288.347424
 30
0.0
  0
SPLINE
  5
176
100
AcDbEntity
  8
0
 62
5
100
AcDbSpline
 70
8
 71
3
 72
8
 73
4
 74
0
 40
0
 40
0
 40
0
 40
0
 40
1
 40
1
 40
1
 40
1
 10
33.176779
 20
288.347424
 30
0.0
 10
33.083312
 20
288.376213
 30
0.0
 10
32.969036
 20
288.390083
 30
0.0
 10
32.834038
 20
288.390083
 30
0.0
  0
SPLINE
  5
177
100
AcDbEntity
  8
0
 62
5
100
AcDbSpline
 70
8
 71
3
 72
8
 73
4
 74
0
 40
0
 40
0
 40
0
 40
0
 40
1
 40
1
 40
1
 40
1
 10
32.834038
 20
288.390083
 30
0.0
 10
32.511296
 20
288.390083
 30
0.0
 10
32.256296
 20
288.278873
 30
0.0
 10
32.066460
 20
288.057261
 30
0.0
  0
SPLINE
  5
178
100
AcDbEntity
  8
0
 62
5
100
AcDbSpline
 70
8
 71
3
 72
8
 73
4
 74
0
 40
0
 40
0
 40
0
 40
0
 40
1
 40
1
 40
1
 40
1
 10
32.066460
 20
288.057261
 30
0.0
 10
31.877185
 20
287.835328
 30
0.0
 10
31.782025
 20
287.536618
 30
0.0
 10
31.782025
 20
287.162103
 30
0.0
  0
SPLINE
  5
179
100
AcDbEntity
  8
0
 62
5
100
AcDbSpline
 70
8
 71
3
 72
8
 73
4
 74
0
 40
0
 40
0
 40
0
 40
0
 40
1
 40
1
 40
1
 40
1
 10
31.782025
 20
287.162103
 30
0.0
 10
31.782025
 20
286.940006
 30
0.0
 10
31.830007
 20
286.760572
 30
0.0
 10
31.926136
 20
286.623233
 30
0.0
  0
SPLINE
  5
17a
100
AcDbEntity
  8
0
 62
5
100
AcDbSpline
 70
8
 71
3
 72
8
 73
4
 74
0
 40
0
 40
0
 40
0
 40
0
 40
1
 40
1
 40
1
 40
1
 10
31.926136
 20
286.623233
 30
0.0
 10
32.021701
 20
286.485895
 30
0.0
 10
32.198474
 20
286.417507
 30
0.0
 10
32.454927
 20
286.417507
 30
0.0
  0
SPLINE
  5
17b
100
AcDbEntity
  8
0
 62
5
100
AcDbSpline
 70
8
 71
3
 72
8
 73
4
 74
0
 40
0
 40
0
 40
0
 40
0
 40
1
 40
1
 40
1
 40
1
 10
32.454927
 20
286.417507
 30
0.0
 10
32.581538
 20
286.417507
 30
0.0
 10
32.703717
 20
286.430813
 30
0.0
 10
32.820811
 20
286.456538
 30
0.0
  0
SPLINE
  5
17c
100
AcDbEntity
  8
0
 62
5
100
AcDbSpline
 70
8
 71
3
 72
8
 73
4
 74
0
 40
0
 40
0
 40
0
 40
0
 40
1
 40
1
 40
1
 40
1
 10
32.820811
 20
286.456538
 30
0.0
 10
32.938715
 20
286.482668
 30
0.0
 10
33.042828
 20
286.515572
 30
0.0
 10
33.134520
 20
286.554443
 30
0.0
  0
SPLINE
  5
17d
100
AcDbEntity
  8
0
 62
5
100
AcDbSpline
 70
8
 71
3
 72
8
 73
4
 74
0
 40
0
 40
0
 40
0
 40
0
 40
1
 40
1
 40
1
 40
1
 10
33.206777
 20
285.777347
 30
0.0
 10
33.084521
 20
285.729928
 30
0.0
 10
32.949600
 20
285.687105
 30
0.0
 10
32.801780
 20
285.649605
 30
0.0
  0
SPLINE
  5
17e
100
AcDbEntity
  8
0
 62
5
100
AcDbSpline
 70
8
 71
3
 72
8
 73
4
 74
0
 40
0
 40
0
 40
0
 40
0
 40
1
 40
1
 40
1
 40
1
 10
32.801780
 20
285.649605
 30
0.0
 10
32.653473
 20
285.613395
 30
0.0
 10
32.477104
 20
285.594524
 30
0.0
 10
32.272507
 20
285.594524
 30
0.0
  0
SPLINE
  5
17f
100
AcDbEntity
  8
0
 62
5
100
AcDbSpline
 70
8
 71
3
 72
8
 73
4
 74
0
 40
0
 40
0
 40
0
 40
0
 40
1
 40
1
 40
1
 40
1
 10
32.272507
 20
285.594524
 30
0.0
 10
32.002505
 20
285.594524
 30
0.0
 10
31.773797
 20
285.634122
 30
0.0
 10
31.586863
 20
285.711862
 30
0.0
  0
SPLINE
  5
180
100
AcDbEntity
  8
0
 62
5
100
AcDbSpline
 70
8
 71
3
 72
8
 73
4
 74
0
 40
0
 40
0
 40
0
 40
0
 40
1
 40
1
 40
1
 40
1
 10
31.586863
 20
285.711862
 30
0.0
 10
31.399766
 20
285.790896
 30
0.0
 10
31.245170
 20
285.895894
 30
0.0
 10
31.123316
 20
286.028718
 30
0.0
  0
SPLINE
  5
181
100
AcDbEntity
  8
0
 62
5
100
AcDbSpline
 70
8
 71
3
 72
8
 73
4
 74
0
 40
0
 40
0
 40
0
 40
0
 40
1
 40
1
 40
1
 40
1
 10
31.123316
 20
286.028718
 30
0.0
 10
31.000816
 20
286.161944
 30
0.0
 10
30.912991
 20
286.317588
 30
0.0
 10
30.858719
 20
286.496056
 30
0.0
  0
SPLINE
  5
182
100
AcDbEntity
  8
0
 62
5
100
AcDbSpline
 70
8
 71
3
 72
8
 73
4
 74
0
 40
0
 40
0
 40
0
 40
0
 40
1
 40
1
 40
1
 40
1
 10
30.858719
 20
286.496056
 30
0.0
 10
30.804363
 20
286.674522
 30
0.0
 10
30.776540
 20
286.862184
 30
0.0
 10
30.776540
 20
287.057587
 30
0.0
  0
SPLINE
  5
183
100
AcDbEntity
  8
0
 62
5
100
AcDbSpline
 70
8
 71
3
 72
8
 73
4
 74
0
 40
0
 40
0
 40
0
 40
0
 40
1
 40
1
 40
1
 40
1
 10
38.997379
 20
289.731887
 30
0.0
 10
38.936091
 20
289.673258
 30
0.0
 10
38.865527
 20
289.626646
 30
0.0
 10
38.785284
 20
289.591725
 30
0.0
  0
SPLINE
  5
184
100
AcDbEntity
  8
0
 62
5
100
AcDbSpline
 70
8
 71
3
 72
8
 73
4
 74
0
 40
0
 40
0
 40
0
 40
0
 40
1
 40
1
 40
1
 40
1
 10
38.785284
 20
289.591725
 30
0.0
 10
38.704234
 20
289.556404
 30
0.0
 10
38.618591
 20
289.539710
 30
0.0
 10
38.526736
 20
289.539710
 30
0.0
  0
SPLINE
  5
185
100
AcDbEntity
  8
0
 62
5
100
AcDbSpline
 70
8
 71
3
 72
8
 73
4
 74
0
 40
0
 40
0
 40
0
 40
0
 40
1
 40
1
 40
1
 40
1
 10
38.526736
 20
289.539710
 30
0.0
 10
38.391896
 20
289.539710
 30
0.0
 10
38.269640
 20
289.579872
 30
0.0
 10
38.161333
 20
289.660356
 30
0.0
  0
SPLINE
  5
186
100
AcDbEntity
  8
0
 62
5
100
AcDbSpline
 70
8
 71
3
 72
8
 73
4
 74
0
 40
0
 40
0
 40
0
 40
0
 40
1
 40
1
 40
1
 40
1
 10
38.161333
 20
289.660356
 30
0.0
 10
38.052301
 20
289.740354
 30
0.0
 10
37.997704
 20
289.863501
 30
0.0
 10
37.997704
 20
290.029467
 30
0.0
  0
SPLINE
  5
187
100
AcDbEntity
  8
0
 62
5
100
AcDbSpline
 70
8
 71
3
 72
8
 73
4
 74
0
 40
0
 40
0
 40
0
 40
0
 40
1
 40
1
 40
1
 40
1
 10
37.997704
 20
290.029467
 30
0.0
 10
37.997704
 20
290.120758
 30
0.0
 10
38.016490
 20
290.206403
 30
0.0
 10
38.053349
 20
290.287209
 30
0.0
  0
SPLINE
  5
188
100
AcDbEntity
  8
0
 62
5
100
AcDbSpline
 70
8
 71
3
 72
8
 73
4
 74
0
 40
0
 40
0
 40
0
 40
0
 40
1
 40
1
 40
1
 40
1
 10
38.053349
 20
290.287209
 30
0.0
 10
38.090205
 20
290.367854
 30
0.0
 10
38.139238
 20
290.437289
 30
0.0
 10
38.200364
 20
290.496321
 30
0.0
  0
SPLINE
  5
189
100
AcDbEntity
  8
0
 62
5
100
AcDbSpline
 70
8
 71
3
 72
8
 73
4
 74
0
 40
0
 40
0
 40
0
 40
0
 40
1
 40
1
 40
1
 40
1
 10
38.200364
 20
290.496321
 30
0.0
 10
38.261171
 20
290.554870
 30
0.0
 10
38.332542
 20
290.601643
 30
0.0
 10
38.412703
 20
290.636804
 30
0.0
  0
SPLINE
  5
18a
100
AcDbEntity
  8
0
 62
5
100
AcDbSpline
 70
8
 71
3
 72
8
 73
4
 74
0
 40
0
 40
0
 40
0
 40
0
 40
1
 40
1
 40
1
 40
1
 10
38.412703
 20
290.636804
 30
0.0
 10
38.493028
 20
290.671563
 30
0.0
 10
38.578994
 20
290.688982
 30
0.0
 10
38.670204
 20
290.688982
 30
0.0
  0
SPLINE
  5
18b
100
AcDbEntity
  8
0
 62
5
100
AcDbSpline
 70
8
 71
3
 72
8
 73
4
 74
0
 40
0
 40
0
 40
0
 40
0
 40
1
 40
1
 40
1
 40
1
 10
38.670204
 20
290.688982
 30
0.0
 10
38.805445
 20
290.688982
 30
0.0
 10
38.927540
 20
290.648822
 30
0.0
 10
39.036252
 20
290.568337
 30
0.0
  0
SPLINE
  5
18c
100
AcDbEntity
  8
0
 62
5
100
AcDbSpline
 70
8
 71
3
 72
8
 73
4
 74
0
 40
0
 40
0
 40
0
 40
0
 40
1
 40
1
 40
1
 40
1
 10
39.036252
 20
290.568337
 30
0.0
 10
39.145041
 20
290.487451
 30
0.0
 10
39.199878
 20
290.364306
 30
0.0
 10
39.199878
 20
290.199225
 30
0.0
  0
SPLINE
  5
18d
100
AcDbEntity
  8
0
 62
5
100
AcDbSpline
 70
8
 71
3
 72
8
 73
4
 74
0
 40
0
 40
0
 40
0
 40
0
 40
1
 40
1
 40
1
 40
1
 10
39.199878
 20
290.199225
 30
0.0
 10
39.199878
 20
290.107612
 30
0.0
 10
39.180352
 20
290.021644
 30
0.0
 10
39.143832
 20
289.941001
 30
0.0
  0
SPLINE
  5
18e
100
AcDbEntity
  8
0
 62
5
100
AcDbSpline
 70
8
 71
3
 72
8
 73
4
 74
0
 40
0
 40
0
 40
0
 40
0
 40
1
 40
1
 40
1
 40
1
 10
39.143832
 20
289.941001
 30
0.0
 10
39.107298
 20
289.860356
 30
0.0
 10
39.058186
 20
289.790920
 30
0.0
 10
38.997379
 20
289.731887
 30
0.0
  0
SPLINE
  5
18f
100
AcDbEntity
  8
0
 62
5
100
AcDbSpline
 70
8
 71
3
 72
8
 73
4
 74
0
 40
0
 40
0
 40
0
 40
0
 40
1
 40
1
 40
1
 40
1
 10
35.553893
 20
288.390083
 30
0.0
 10
35.410669
 20
288.390083
 30
0.0
 10
35.283894
 20
288.348471
 30
0.0
 10
35.175508
 20
288.266293
 30
0.0
  0
SPLINE
  5
190
100
AcDbEntity
  8
0
 62
5
100
AcDbSpline
 70
8
 71
3
 72
8
 73
4
 74
0
 40
0
 40
0
 40
0
 40
0
 40
1
 40
1
 40
1
 40
1
 10
34.734542
 20
287.537827
 30
0.0
 10
34.697527
 20
287.387425
 30
0.0
 10
34.679221
 20
287.245167
 30
0.0
 10
34.679221
 20
287.110087
 30
0.0
  0
SPLINE
  5
191
100
AcDbEntity
  8
0
 62
5
100
AcDbSpline
 70
8
 71
3
 72
8
 73
4
 74
0
 40
0
 40
0
 40
0
 40
0
 40
1
 40
1
 40
1
 40
1
 10
34.679221
 20
287.110087
 30
0.0
 10
34.679221
 20
286.892183
 30
0.0
 10
34.714542
 20
286.722345
 30
0.0
 10
34.783493
 20
286.600167
 30
0.0
  0
SPLINE
  5
192
100
AcDbEntity
  8
0
 62
5
100
AcDbSpline
 70
8
 71
3
 72
8
 73
4
 74
0
 40
0
 40
0
 40
0
 40
0
 40
1
 40
1
 40
1
 40
1
 10
34.783493
 20
286.600167
 30
0.0
 10
34.853494
 20
286.478717
 30
0.0
 10
34.979621
 20
286.417587
 30
0.0
 10
35.162445
 20
286.417587
 30
0.0
  0
SPLINE
  5
193
100
AcDbEntity
  8
0
 62
5
100
AcDbSpline
 70
8
 71
3
 72
8
 73
4
 74
0
 40
0
 40
0
 40
0
 40
0
 40
1
 40
1
 40
1
 40
1
 10
35.162445
 20
286.417587
 30
0.0
 10
35.306233
 20
286.417587
 30
0.0
 10
35.432280
 20
286.458879
 30
0.0
 10
35.541395
 20
286.541861
 30
0.0
  0
SPLINE
  5
194
100
AcDbEntity
  8
0
 62
5
100
AcDbSpline
 70
8
 71
3
 72
8
 73
4
 74
0
 40
0
 40
0
 40
0
 40
0
 40
1
 40
1
 40
1
 40
1
 10
35.541395
 20
286.541861
 30
0.0
 10
35.649620
 20
286.624362
 30
0.0
 10
35.741152
 20
286.728958
 30
0.0
 10
35.815347
 20
286.855328
 30
0.0
  0
SPLINE
  5
195
100
AcDbEntity
  8
0
 62
5
100
AcDbSpline
 70
8
 71
3
 72
8
 73
4
 74
0
 40
0
 40
0
 40
0
 40
0
 40
1
 40
1
 40
1
 40
1
 10
35.815347
 20
286.855328
 30
0.0
 10
35.889377
 20
286.981216
 30
0.0
 10
35.945183
 20
287.119764
 30
0.0
 10
35.982442
 20
287.270087
 30
0.0
  0
SPLINE
  5
196
100
AcDbEntity
  8
0
 62
5
100
AcDbSpline
 70
8
 71
3
 72
8
 73
4
 74
0
 40
0
 40
0
 40
0
 40
0
 40
1
 40
1
 40
1
 40
1
 10
35.982442
 20
287.270087
 30
0.0
 10
36.019057
 20
287.420005
 30
0.0
 10
36.037602
 20
287.562990
 30
0.0
 10
36.037602
 20
287.697827
 30
0.0
  0
SPLINE
  5
197
100
AcDbEntity
  8
0
 62
5
100
AcDbSpline
 70
8
 71
3
 72
8
 73
4
 74
0
 40
0
 40
0
 40
0
 40
0
 40
1
 40
1
 40
1
 40
1
 10
36.037602
 20
287.697827
 30
0.0
 10
36.037602
 20
287.915246
 30
0.0
 10
36.002603
 20
288.085407
 30
0.0
 10
35.932846
 20
288.207422
 30
0.0
  0
SPLINE
  5
198
100
AcDbEntity
  8
0
 62
5
100
AcDbSpline
 70
8
 71
3
 72
8
 73
4
 74
0
 40
0
 40
0
 40
0
 40
0
 40
1
 40
1
 40
1
 40
1
 10
35.932846
 20
288.207422
 30
0.0
 10
35.863329
 20
288.328955
 30
0.0
 10
35.736797
 20
288.390083
 30
0.0
 10
35.553893
 20
288.390083
 30
0.0
  0
SPLINE
  5
199
100
AcDbEntity
  8
0
 62
5
100
AcDbSpline
 70
8
 71
3
 72
8
 73
4
 74
0
 40
0
 40
0
 40
0
 40
0
 40
1
 40
1
 40
1
 40
1
 10
35.070912
 20
285.594846
 30
0.0
 10
34.840106
 20
285.594846
 30
0.0
 10
34.639623
 20
285.630010
 30
0.0
 10
34.469705
 20
285.699605
 30
0.0
  0
SPLINE
  5
19a
100
AcDbEntity
  8
0
 62
5
100
AcDbSpline
 70
8
 71
3
 72
8
 73
4
 74
0
 40
0
 40
0
 40
0
 40
0
 40
1
 40
1
 40
1
 40
1
 10
34.469705
 20
285.699605
 30
0.0
 10
34.300107
 20
285.769122
 30
0.0
 10
34.159867
 20
285.866862
 30
0.0
 10
34.048816
 20
285.993557
 30
0.0
  0
SPLINE
  5
19b
100
AcDbEntity
  8
0
 62
5
100
AcDbSpline
 70
8
 71
3
 72
8
 73
4
 74
0
 40
0
 40
0
 40
0
 40
0
 40
1
 40
1
 40
1
 40
1
 10
34.048816
 20
285.993557
 30
0.0
 10
33.937448
 20
286.119442
 30
0.0
 10
33.854300
 20
286.268718
 30
0.0
 10
33.797285
 20
286.440733
 30
0.0
  0
SPLINE
  5
19c
100
AcDbEntity
  8
0
 62
5
100
AcDbSpline
 70
8
 71
3
 72
8
 73
4
 74
0
 40
0
 40
0
 40
0
 40
0
 40
1
 40
1
 40
1
 40
1
 10
33.797285
 20
286.440733
 30
0.0
 10
33.740270
 20
286.612667
 30
0.0
 10
33.712851
 20
286.803150
 30
0.0
 10
33.712851
 20
287.011700
 30
0.0
  0
SPLINE
  5
19d
100
AcDbEntity
  8
0
 62
5
100
AcDbSpline
 70
8
 71
3
 72
8
 73
4
 74
0
 40
0
 40
0
 40
0
 40
0
 40
1
 40
1
 40
1
 40
1
 10
33.712851
 20
287.011700
 30
0.0
 10
33.712851
 20
287.273312
 30
0.0
 10
33.754785
 20
287.534924
 30
0.0
 10
33.839706
 20
287.795972
 30
0.0
  0
SPLINE
  5
19e
100
AcDbEntity
  8
0
 62
5
100
AcDbSpline
 70
8
 71
3
 72
8
 73
4
 74
0
 40
0
 40
0
 40
0
 40
0
 40
1
 40
1
 40
1
 40
1
 10
33.839706
 20
287.795972
 30
0.0
 10
33.924383
 20
288.057424
 30
0.0
 10
34.049785
 20
288.292262
 30
0.0
 10
34.215591
 20
288.501052
 30
0.0
  0
SPLINE
  5
19f
100
AcDbEntity
  8
0
 62
5
100
AcDbSpline
 70
8
 71
3
 72
8
 73
4
 74
0
 40
0
 40
0
 40
0
 40
0
 40
1
 40
1
 40
1
 40
1
 10
34.215591
 20
288.501052
 30
0.0
 10
34.380268
 20
288.710164
 30
0.0
 10
34.583574
 20
288.881131
 30
0.0
 10
34.822606
 20
289.014437
 30
0.0
  0
SPLINE
  5
1a0
100
AcDbEntity
  8
0
 62
5
100
AcDbSpline
 70
8
 71
3
 72
8
 73
4
 74
0
 40
0
 40
0
 40
0
 40
0
 40
1
 40
1
 40
1
 40
1
 10
34.822606
 20
289.014437
 30
0.0
 10
35.061559
 20
289.146856
 30
0.0
 10
35.336395
 20
289.213470
 30
0.0
 10
35.645106
 20
289.213470
 30
0.0
  0
SPLINE
  5
1a1
100
AcDbEntity
  8
0
 62
5
100
AcDbSpline
 70
8
 71
3
 72
8
 73
4
 74
0
 40
0
 40
0
 40
0
 40
0
 40
1
 40
1
 40
1
 40
1
 10
35.645106
 20
289.213470
 30
0.0
 10
35.871557
 20
289.213470
 30
0.0
 10
36.070910
 20
289.178227
 30
0.0
 10
36.243329
 20
289.108630
 30
0.0
  0
SPLINE
  5
1a2
100
AcDbEntity
  8
0
 62
5
100
AcDbSpline
 70
8
 71
3
 72
8
 73
4
 74
0
 40
0
 40
0
 40
0
 40
0
 40
1
 40
1
 40
1
 40
1
 10
36.243329
 20
289.108630
 30
0.0
 10
36.414861
 20
289.039194
 30
0.0
 10
36.556151
 20
288.940727
 30
0.0
 10
36.667845
 20
288.814760
 30
0.0
  0
SPLINE
  5
1a3
100
AcDbEntity
  8
0
 62
5
100
AcDbSpline
 70
8
 71
3
 72
8
 73
4
 74
0
 40
0
 40
0
 40
0
 40
0
 40
1
 40
1
 40
1
 40
1
 10
36.667845
 20
288.814760
 30
0.0
 10
36.778409
 20
288.688147
 30
0.0
 10
36.862359
 20
288.539518
 30
0.0
 10
36.918731
 20
288.367262
 30
0.0
  0
SPLINE
  5
1a4
100
AcDbEntity
  8
0
 62
5
100
AcDbSpline
 70
8
 71
3
 72
8
 73
4
 74
0
 40
0
 40
0
 40
0
 40
0
 40
1
 40
1
 40
1
 40
1
 10
36.918731
 20
288.367262
 30
0.0
 10
36.975584
 20
288.195649
 30
0.0
 10
37.003651
 20
288.004761
 30
0.0
 10
37.003651
 20
287.795972
 30
0.0
  0
SPLINE
  5
1a5
100
AcDbEntity
  8
0
 62
5
100
AcDbSpline
 70
8
 71
3
 72
8
 73
4
 74
0
 40
0
 40
0
 40
0
 40
0
 40
1
 40
1
 40
1
 40
1
 10
37.003651
 20
287.795972
 30
0.0
 10
37.003651
 20
287.535167
 30
0.0
 10
36.962199
 20
287.273472
 30
0.0
 10
36.879940
 20
287.011860
 30
0.0
  0
SPLINE
  5
1a6
100
AcDbEntity
  8
0
 62
5
100
AcDbSpline
 70
8
 71
3
 72
8
 73
4
 74
0
 40
0
 40
0
 40
0
 40
0
 40
1
 40
1
 40
1
 40
1
 10
36.879940
 20
287.011860
 30
0.0
 10
36.797684
 20
286.751377
 30
0.0
 10
36.675425
 20
286.515894
 30
0.0
 10
36.514135
 20
286.306700
 30
0.0
  0
SPLINE
  5
1a7
100
AcDbEntity
  8
0
 62
5
100
AcDbSpline
 70
8
 71
3
 72
8
 73
4
 74
0
 40
0
 40
0
 40
0
 40
0
 40
1
 40
1
 40
1
 40
1
 10
36.514135
 20
286.306700
 30
0.0
 10
36.353168
 20
286.097830
 30
0.0
 10
36.151958
 20
285.926943
 30
0.0
 10
35.910187
 20
285.794202
 30
0.0
  0
SPLINE
  5
1a8
100
AcDbEntity
  8
0
 62
5
100
AcDbSpline
 70
8
 71
3
 72
8
 73
4
 74
0
 40
0
 40
0
 40
0
 40
0
 40
1
 40
1
 40
1
 40
1
 10
35.910187
 20
285.794202
 30
0.0
 10
35.668813
 20
285.661380
 30
0.0
 10
35.388653
 20
285.594846
 30
0.0
 10
35.070912
 20
285.594846
 30
0.0
  0
SPLINE
  5
1a9
100
AcDbEntity
  8
0
 62
5
100
AcDbSpline
 70
8
 71
3
 72
8
 73
4
 74
0
 40
0
 40
0
 40
0
 40
0
 40
1
 40
1
 40
1
 40
1
 10
35.175508
 20
288.266293
 30
0.0
 10
35.066557
 20
288.183149
 30
0.0
 10
34.975186
 20
288.078551
 30
0.0
 10
34.901476
 20
287.952666
 30
0.0
  0
SPLINE
  5
1aa
100
AcDbEntity
  8
0
 62
5
100
AcDbSpline
 70
8
 71
3
 72
8
 73
4
 74
0
 40
0
 40
0
 40
0
 40
0
 40
1
 40
1
 40
1
 40
1
 10
34.901476
 20
287.952666
 30
0.0
 10
34.826959
 20
287.825971
 30
0.0
 10
34.771880
 20
287.687828
 30
0.0
 10
34.734542
 20
287.537827
 30
0.0
  0
LINE
  5
1ab
100
AcDbEntity
  8
0
 62
5
100
AcDbLine
 10
20.624133
 20
289.193486
 30
0.0
 11
20.740182
 21
289.658646
 31
0.0
  0
LINE
  5
1ac
100
AcDbEntity
  8
0
 62
5
100
AcDbLine
 10
20.740182
 20
289.658646
 30
0.0
 11
20.457038
 21
289.729210
 31
0.0
  0
LINE
  5
1ad
100
AcDbEntity
  8
0
 62
5
100
AcDbLine
 10
20.457038
 20
289.729210
 30
0.0
 11
20.344135
 21
289.276308
 31
0.0
  0
LINE
  5
1ae
100
AcDbEntity
  8
0
 62
5
100
AcDbLine
 10
20.117361
 20
289.329695
 30
0.0
 11
20.230989
 21
289.785580
 31
0.0
  0
LINE
  5
1af
100
AcDbEntity
  8
0
 62
5
100
AcDbLine
 10
20.230989
 20
289.785580
 30
0.0
 11
19.948088
 21
289.856145
 31
0.0
  0
LINE
  5
1b0
100
AcDbEntity
  8
0
 62
5
100
AcDbLine
 10
19.948088
 20
289.856145
 30
0.0
 11
19.832039
 21
289.391147
 31
0.0
  0
LINE
  5
1b1
100
AcDbEntity
  8
0
 62
5
100
AcDbLine
 10
19.651232
 20
289.433646
 30
0.0
 11
19.651550
 21
289.435101
 31
0.0
  0
LINE
  5
1b2
100
AcDbEntity
  8
0
 62
5
100
AcDbLine
 10
19.651555
 20
289.435098
 30
0.0
 11
19.261071
 21
289.532598
 31
0.0
  0
LINE
  5
1b3
100
AcDbEntity
  8
0
 62
5
100
AcDbLine
 10
19.261071
 20
289.532598
 30
0.0
 11
19.185750
 21
289.230178
 31
0.0
  0
LINE
  5
1b4
100
AcDbEntity
  8
0
 62
5
100
AcDbLine
 10
19.523331
 20
289.014373
 30
0.0
 11
19.391152
 21
288.484456
 31
0.0
  0
LINE
  5
1b5
100
AcDbEntity
  8
0
 62
5
100
AcDbLine
 10
19.390749
 20
288.482439
 30
0.0
 11
19.205588
 21
287.740102
 31
0.0
  0
LINE
  5
1b6
100
AcDbEntity
  8
0
 62
5
100
AcDbLine
 10
18.870024
 20
287.724214
 30
0.0
 11
18.729380
 21
287.400021
 31
0.0
  0
LINE
  5
1b7
100
AcDbEntity
  8
0
 62
5
100
AcDbLine
 10
18.729380
 20
287.400021
 30
0.0
 11
19.097926
 21
287.308087
 31
0.0
  0
LINE
  5
1b8
100
AcDbEntity
  8
0
 62
5
100
AcDbLine
 10
19.299783
 20
287.256069
 30
0.0
 11
19.182524
 21
286.785587
 31
0.0
  0
LINE
  5
1b9
100
AcDbEntity
  8
0
 62
5
100
AcDbLine
 10
19.182524
 20
286.785587
 30
0.0
 11
19.465346
 21
286.715023
 31
0.0
  0
LINE
  5
1ba
100
AcDbEntity
  8
0
 62
5
100
AcDbLine
 10
19.465346
 20
286.715023
 30
0.0
 11
19.581395
 21
287.180585
 31
0.0
  0
LINE
  5
1bb
100
AcDbEntity
  8
0
 62
5
100
AcDbLine
 10
19.807039
 20
287.121956
 30
0.0
 11
19.691395
 21
286.658732
 31
0.0
  0
LINE
  5
1bc
100
AcDbEntity
  8
0
 62
5
100
AcDbLine
 10
19.691395
 20
286.658732
 30
0.0
 11
19.974539
 21
286.588168
 31
0.0
  0
LINE
  5
1bd
100
AcDbEntity
  8
0
 62
5
100
AcDbLine
 10
19.974539
 20
286.588168
 30
0.0
 11
20.091717
 21
287.057683
 31
0.0
  0
LINE
  5
1be
100
AcDbEntity
  8
0
 62
5
100
AcDbLine
 10
19.900022
 20
288.429939
 30
0.0
 11
20.040991
 21
288.995260
 31
0.0
  0
LINE
  5
1bf
100
AcDbEntity
  8
0
 62
5
100
AcDbLine
 10
19.673329
 20
287.521391
 30
0.0
 11
19.828893
 21
288.144696
 31
0.0
  0
LINE
  5
1c0
100
AcDbEntity
  8
0
 62
5
100
AcDbLine
 10
22.756960
 20
285.849710
 30
0.0
 11
23.886877
 21
290.597846
 31
0.0
  0
LINE
  5
1c1
100
AcDbEntity
  8
0
 62
5
100
AcDbLine
 10
23.886877
 20
290.597846
 30
0.0
 11
24.898972
 21
290.754700
 31
0.0
  0
LINE
  5
1c2
100
AcDbEntity
  8
0
 62
5
100
AcDbLine
 10
24.898972
 20
290.754700
 30
0.0
 11
24.494457
 21
289.069783
 31
0.0
  0
LINE
  5
1c3
100
AcDbEntity
  8
0
 62
5
100
AcDbLine
 10
24.291796
 20
288.214061
 30
0.0
 11
23.860990
 21
286.424708
 31
0.0
  0
LINE
  5
1c4
100
AcDbEntity
  8
0
 62
5
100
AcDbLine
 10
27.300621
 20
285.685927
 30
0.0
 11
26.334010
 21
285.685927
 31
0.0
  0
LINE
  5
1c5
100
AcDbEntity
  8
0
 62
5
100
AcDbLine
 10
26.334010
 20
285.685927
 30
0.0
 11
27.150380
 21
289.121164
 31
0.0
  0
LINE
  5
1c6
100
AcDbEntity
  8
0
 62
5
100
AcDbLine
 10
27.150380
 20
289.121164
 30
0.0
 11
28.123602
 21
289.121164
 31
0.0
  0
LINE
  5
1c7
100
AcDbEntity
  8
0
 62
5
100
AcDbLine
 10
28.123602
 20
289.121164
 30
0.0
 11
27.300621
 21
285.685927
 31
0.0
  0
LINE
  5
1c8
100
AcDbEntity
  8
0
 62
5
100
AcDbLine
 10
40.392829
 20
288.344390
 30
0.0
 11
39.759281
 21
285.686492
 31
0.0
  0
LINE
  5
1c9
100
AcDbEntity
  8
0
 62
5
100
AcDbLine
 10
39.759281
 20
285.686492
 30
0.0
 11
38.785816
 21
285.686492
 31
0.0
  0
LINE
  5
1ca
100
AcDbEntity
  8
0
 62
5
100
AcDbLine
 10
38.785816
 20
285.686492
 30
0.0
 11
39.576460
 21
288.964954
 31
0.0
  0
LINE
  5
1cb
100
AcDbEntity
  8
0
 62
5
100
AcDbLine
 10
42.117341
 20
287.541085
 30
0.0
 11
41.672584
 21
285.686250
 31
0.0
  0
LINE
  5
1cc
100
AcDbEntity
  8
0
 62
5
100
AcDbLine
 10
41.672584
 20
285.686250
 30
0.0
 11
40.699603
 21
285.686250
 31
0.0
  0
LINE
  5
1cd
100
AcDbEntity
  8
0
 62
5
100
AcDbLine
 10
40.699603
 20
285.686250
 30
0.0
 11
41.130569
 21
287.502134
 31
0.0
  0
LINE
  5
1ce
100
AcDbEntity
  8
0
 62
5
100
AcDbLine
 10
28.330530
 20
287.273328
 30
0.0
 11
28.970772
 21
289.977033
 31
0.0
  0
LINE
  5
1cf
100
AcDbEntity
  8
0
 62
5
100
AcDbLine
 10
28.970772
 20
289.977033
 30
0.0
 11
29.983348
 21
290.133887
 31
0.0
  0
LINE
  5
1d0
100
AcDbEntity
  8
0
 62
5
100
AcDbLine
 10
29.983348
 20
290.133887
 30
0.0
 11
29.734722
 21
289.121308
 31
0.0
  0
LINE
  5
1d1
100
AcDbEntity
  8
0
 62
5
100
AcDbLine
 10
29.734722
 20
289.121308
 30
0.0
 11
30.818995
 21
289.121308
 31
0.0
  0
LINE
  5
1d2
100
AcDbEntity
  8
0
 62
5
100
AcDbLine
 10
30.818995
 20
289.121308
 30
0.0
 11
30.623187
 21
288.324696
 31
0.0
  0
LINE
  5
1d3
100
AcDbEntity
  8
0
 62
5
100
AcDbLine
 10
30.623187
 20
288.324696
 30
0.0
 11
29.545367
 21
288.324696
 31
0.0
  0
LINE
  5
1d4
100
AcDbEntity
  8
0
 62
5
100
AcDbLine
 10
29.545367
 20
288.324696
 30
0.0
 11
29.258271
 21
287.123005
 31
0.0
  0
LINE
  5
1d5
100
AcDbEntity
  8
0
 62
5
100
AcDbLine
 10
30.276895
 20
286.528812
 30
0.0
 11
30.349074
 21
285.783976
 31
0.0
  0
LINE
  5
1d6
100
AcDbEntity
  8
0
 62
5
100
AcDbLine
 10
33.781132
 20
289.010809
 30
0.0
 11
33.447829
 21
288.252744
 31
0.0
  0
LINE
  5
1d7
100
AcDbEntity
  8
0
 62
5
100
AcDbLine
 10
33.134520
 20
286.554443
 30
0.0
 11
33.206777
 21
285.777347
 31
0.0
  0
LINE
  5
1d8
100
AcDbEntity
  8
0
 62
5
100
AcDbLine
 10
38.057061
 20
285.685927
 30
0.0
 11
37.089723
 21
285.685927
 31
0.0
  0
LINE
  5
1d9
100
AcDbEntity
  8
0
 62
5
100
AcDbLine
 10
37.089723
 20
285.685927
 30
0.0
 11
37.906013
 21
289.121164
 31
0.0
  0
LINE
  5
1da
100
AcDbEntity
  8
0
 62
5
100
AcDbLine
 10
37.906013
 20
289.121164
 30
0.0
 11
38.879719
 21
289.121164
 31
0.0
  0
LINE
  5
1db
100
AcDbEntity
  8
0
 62
5
100
AcDbLine
 10
38.879719
 20
289.121164
 30
0.0
 11
38.057061
 21
285.685927
 31
0.0
  0
LINE
  5
1dc
100
AcDbEntity
  8
0
 62
1
100
AcDbLine
 10
5.556464
 20
211.994410
 30
0.0
 11
55.688465
 21
211.994410
 31
0.0
  0
LINE
  5
1dd
100
AcDbEntity
  8
0
 62
1
100
AcDbLine
 10
55.688465
 20
281.142937
 30
0.0
 11
5.556464
 21
281.142937
 31
0.0
  0
LINE
  5
1de
100
AcDbEntity
  8
0
 62
1
100
AcDbLine
 10
5.556464
 20
281.142937
 30
0.0
 11
5.556464
 21
211.994410
 31
0.0
  0
LINE
  5
1df
100
AcDbEntity
  8
0
 62
1
100
AcDbLine
 10
4.034957
 20
198.177958
 30
0.0
 11
57.034957
 21
198.177958
 31
0.0
  0
LINE
  5
1e0
100
AcDbEntity
  8
0
 62
1
100
AcDbLine
 10
55.688465
 20
211.994410
 30
0.0
 11
55.688465
 21
281.142937
 31
0.0
  0
LINE
  5
1e1
100
AcDbEntity
  8
0
 62
1
100
AcDbLine
 10
59.034958
 20
200.177960
 30
0.0
 11
59.034958
 21
293.177959
 31
0.0
  0
LINE
  5
1e2
100
AcDbEntity
  8
0
 62
1
100
AcDbLine
 10
2.034957
 20
293.177959
 30
0.0
 11
2.034957
 21
200.177960
 31
0.0
  0
LINE
  5
1e3
100
AcDbEntity
  8
0
 62
1
100
AcDbLine
 10
57.034957
 20
295.177959
 30
0.0
 11
4.034957
 21
295.177959
 31
0.0
  0
SPLINE
  5
1e4
100
AcDbEntity
  8
0
 62
1
100
AcDbSpline
 70
8
 71
3
 72
8
 73
4
 74
0
 40
0
 40
0
 40
0
 40
0
 40
1
 40
1
 40
1
 40
1
 10
59.034958
 20
293.177959
 30
0.0
 10
59.034958
 20
293.708393
 30
0.0
 10
58.824244
 20
294.217101
 30
0.0
 10
58.449171
 20
294.592173
 30
0.0
  0
SPLINE
  5
1e5
100
AcDbEntity
  8
0
 62
1
100
AcDbSpline
 70
8
 71
3
 72
8
 73
4
 74
0
 40
0
 40
0
 40
0
 40
0
 40
1
 40
1
 40
1
 40
1
 10
58.449171
 20
294.592173
 30
0.0
 10
58.074098
 20
294.967246
 30
0.0
 10
57.565390
 20
295.177960
 30
0.0
 10
57.034957
 20
295.177959
 30
0.0
  0
SPLINE
  5
1e6
100
AcDbEntity
  8
0
 62
1
100
AcDbSpline
 70
8
 71
3
 72
8
 73
4
 74
0
 40
0
 40
0
 40
0
 40
0
 40
1
 40
1
 40
1
 40
1
 10
4.034957
 20
295.177959
 30
0.0
 10
3.504524
 20
295.177959
 30
0.0
 10
2.995816
 20
294.967246
 30
0.0
 10
2.620743
 20
294.592173
 30
0.0
  0
SPLINE
  5
1e7
100
AcDbEntity
  8
0
 62
1
100
AcDbSpline
 70
8
 71
3
 72
8
 73
4
 74
0
 40
0
 40
0
 40
0
 40
0
 40
1
 40
1
 40
1
 40
1
 10
2.620743
 20
294.592173
 30
0.0
 10
2.245670
 20
294.217100
 30
0.0
 10
2.034957
 20
293.708392
 30
0.0
 10
2.034957
 20
293.177959
 30
0.0
  0
SPLINE
  5
1e8
100
AcDbEntity
  8
0
 62
1
100
AcDbSpline
 70
8
 71
3
 72
8
 73
4
 74
0
 40
0
 40
0
 40
0
 40
0
 40
1
 40
1
 40
1
 40
1
 10
57.034957
 20
198.177958
 30
0.0
 10
57.565390
 20
198.177958
 30
0.0
 10
58.074098
 20
198.388672
 30
0.0
 10
58.449171
 20
198.763745
 30
0.0
  0
SPLINE
  5
1e9
100
AcDbEntity
  8
0
 62
1
100
AcDbSpline
 70
8
 71
3
 72
8
 73
4
 74
0
 40
0
 40
0
 40
0
 40
0
 40
1
 40
1
 40
1
 40
1
 10
58.449171
 20
198.763745
 30
0.0
 10
58.824244
 20
199.138818
 30
0.0
 10
59.034958
 20
199.647526
 30
0.0
 10
59.034958
 20
200.177960
 30
0.0
  0
SPLINE
  5
1ea
100
AcDbEntity
  8
0
 62
1
100
AcDbSpline
 70
8
 71
3
 72
8
 73
4
 74
0
 40
0
 40
0
 40
0
 40
0
 40
1
 40
1
 40
1
 40
1
 10
2.034957
 20
200.177960
 30
0.0
 10
2.034956
 20
199.647526
 30
0.0
 10
2.245670
 20
199.138818
 30
0.0
 10
2.620743
 20
198.763745
 30
0.0
  0
SPLINE
  5
1eb
100
AcDbEntity
  8
0
 62
1
100
AcDbSpline
 70
8
 71
3
 72
8
 73
4
 74
0
 40
0
 40
0
 40
0
 40
0
 40
1
 40
1
 40
1
 40
1
 10
2.620743
 20
198.763745
 30
0.0
 10
2.995816
 20
198.388672
 30
0.0
 10
3.504524
 20
198.177958
 30
0.0
 10
4.034957
 20
198.177958
 30
0.0
  0
ENDSEC
  0
SECTION
  2
OBJECTS
  0
DICTIONARY
  5
C
330
0
100
AcDbDictionary
  3
ACAD_GROUP
350
D
  3
ACAD_MLINESTYLE
350
17
  0
DICTIONARY
  5
D
330
C
100
AcDbDictionary
  0
DICTIONARY
  5
1A
330
C
100
AcDbDictionary
  0
DICTIONARY
  5
17
330
C
100
AcDbDictionary
  3
STANDARD
350
18
  0
DICTIONARY
  5
19
330
C
100
AcDbDictionary
  0
ENDSEC
  0
EOF
